<?xml version="1.0" encoding="UTF-8"?>
<!DOCTYPE svg PUBLIC "-//W3C//DTD SVG 1.1//EN" "http://www.w3.org/Graphics/SVG/1.1/DTD/svg11.dtd">
<!-- Creator: CorelDRAW 2019 (64 Bit) -->
<svg xmlns="http://www.w3.org/2000/svg" xml:space="preserve" width="297mm" height="210mm" version="1.1" style="shape-rendering:geometricPrecision; text-rendering:geometricPrecision; image-rendering:optimizeQuality; fill-rule:evenodd; clip-rule:evenodd"
viewBox="0 0 29700 21000"
 xmlns:xlink="http://www.w3.org/1999/xlink">
 <defs>
  <style type="text/css">
   <![CDATA[
    .str1 {stroke:#96989A;stroke-width:20;stroke-miterlimit:22.9256}
    .str0 {stroke:#D2AE6D;stroke-width:20;stroke-miterlimit:22.9256}
    .fil0 {fill:#D2AE6D}
    .fil1 {fill:#FEFEFE;fill-rule:nonzero}
    .fil2 {fill:black;fill-rule:nonzero}
   ]]>
  </style>
 </defs>
 <g id="Camada_x0020_1">
  <metadata id="CorelCorpID_0Corel-Layer"/>
  <polygon class="fil0 str0" points="2699.12,15161.06 27070.66,15161.06 27070.66,19043.04 2699.12,19043.04 "/>
  <path class="fil1" d="M23463.5 16665.72c0,19.73 -0.47,36.24 -1.38,49.55 -0.92,13.77 -2.76,24.33 -5.05,31.67 -2.75,7.8 -6.43,13.31 -10.1,17.44 -4.13,4.13 -9.64,5.97 -16.97,5.97 -7.35,0 -16.07,-1.84 -26.17,-5.97 -10.55,-4.13 -22.02,-7.81 -34.87,-11.93 -13.31,-4.13 -27.54,-7.8 -43.6,-11.47 -16.52,-3.68 -33.96,-5.51 -52.78,-5.51 -22.48,0 -44.05,4.59 -65.62,13.77 -21.57,8.71 -44.51,23.4 -67.92,44.05 -23.86,20.65 -48.64,48.18 -74.8,82.14 -25.7,33.97 -54.61,75.73 -85.82,124.83l0 796.21c0,6.88 -1.83,13.3 -5.51,17.89 -3.67,5.05 -9.63,9.19 -17.43,12.85 -8.27,3.68 -19.27,6.43 -33.5,8.26 -14.69,1.85 -33.04,2.76 -55.53,2.76 -21.11,0 -39.01,-0.91 -53.7,-2.76 -14.22,-1.83 -25.7,-4.58 -33.96,-8.26 -8.71,-3.66 -14.68,-7.8 -17.44,-12.85 -3.21,-4.59 -5.04,-11.01 -5.04,-17.89l0 -1210.15c0,-7.35 1.38,-13.3 4.13,-18.35 2.76,-4.59 8.26,-9.18 16.06,-13.32 8.26,-4.12 18.36,-6.42 31.2,-7.8 12.4,-1.37 28.92,-2.29 49.57,-2.29 19.74,0 36.26,0.92 49.1,2.29 12.85,1.38 22.95,3.68 30.29,7.8 6.89,4.14 12.4,8.73 15.61,13.32 2.75,5.05 4.58,11 4.58,18.35l0 176.22c33.05,-48.64 64.25,-88.11 93.17,-118.4 29.37,-30.29 56.9,-54.61 83.05,-72.05 25.7,-17.44 51.4,-29.36 77.1,-36.24 25.7,-6.43 51.41,-10.11 77.1,-10.11 11.93,0 25.24,0.92 39.92,2.3 14.69,1.38 30.29,3.67 46.35,7.34 16.06,3.68 30.76,7.35 43.61,11.94 13.3,4.59 22.48,9.17 27.53,13.3 5.5,4.59 9.18,8.72 11.01,12.85 1.84,4.14 3.22,9.18 4.59,15.61 1.37,6.42 2.29,15.59 2.75,27.53 0.47,11.93 0.47,28.46 0.47,49.11zm-1267.52 526.82c0,-65.16 -6.42,-127.11 -18.36,-185.39 -11.93,-58.29 -32.12,-109.23 -59.65,-153.28 -28,-44.06 -65.63,-78.48 -112.89,-104.18 -47.73,-25.69 -106.93,-38.54 -177.6,-38.54 -65.63,0 -121.62,11.92 -168.89,35.33 -46.8,22.94 -85.81,55.99 -116.1,98.67 -30.74,42.67 -53.23,93.16 -67.91,151.44 -14.7,58.28 -22.03,121.61 -22.03,190.9 0,66.08 5.96,128.5 17.89,186.79 11.93,58.27 32.13,109.21 60.58,152.35 27.99,43.6 66.08,78.01 113.34,103.71 47.73,25.7 106.93,38.09 177.6,38.09 64.72,0 120.71,-11.47 167.97,-34.88 47.73,-23.4 86.73,-55.98 117.02,-98.2 30.75,-41.76 53.23,-92.24 67.46,-150.53 14.23,-58.27 21.57,-122.06 21.57,-192.28zm233.58 -14.68c0,98.67 -12.85,189.52 -39,272.13 -25.7,83.07 -64.71,154.65 -116.1,214.77 -51.4,60.12 -116.11,106.93 -193.66,140.43 -77.57,33.49 -167.51,50.48 -269.38,50.48 -99.59,0 -186.33,-15.14 -260.21,-44.52 -73.89,-29.36 -135.83,-72.5 -184.94,-128.95 -49.11,-56.44 -85.82,-125.28 -110.14,-206.05 -24.32,-80.31 -36.25,-172.09 -36.25,-273.97 0,-98.66 12.85,-189.53 38.08,-272.13 25.7,-83.06 64.25,-154.66 115.66,-214.78 51.39,-60.11 116.1,-106.46 193.19,-139.51 77.1,-33.49 167.04,-50.02 269.84,-50.02 99.59,0 186.32,14.69 260.21,44.52 73.88,29.37 135.84,72.5 184.93,128.95 49.57,56.45 86.28,125.29 111.06,205.6 24.78,80.76 36.71,171.63 36.71,273.05zm-1396.46 434.13c0,15.6 -0.46,28.45 -1.38,39.92 -0.91,11.02 -2.75,20.66 -4.59,27.99 -2.29,7.81 -5.05,14.7 -8.26,20.2 -3.21,5.97 -10.09,14.68 -21.56,25.7 -11.02,11.01 -30.29,25.24 -56.91,41.76 -27.08,16.52 -57.36,31.21 -90.86,44.06 -33.5,13.3 -70.22,23.85 -109.69,31.66 -39.46,8.25 -80.3,12.39 -122.52,12.39 -86.73,0 -163.83,-14.68 -230.83,-43.14 -67.46,-28.91 -123.45,-70.67 -168.89,-125.74 -45.43,-55.07 -79.84,-122.99 -103.7,-202.84 -23.41,-80.31 -35.34,-173.01 -35.34,-277.64 0,-119.32 14.22,-221.65 43.59,-307.47 28.91,-85.36 68.84,-155.57 119.78,-210.18 50.48,-54.61 110.13,-95.46 178.52,-121.61 68.83,-26.62 142.72,-39.93 222.57,-39.93 38.55,0 76.17,3.67 112.43,11.02 36.26,6.88 69.75,16.51 100.04,27.99 30.29,11.48 57.82,25.24 81.23,40.39 23.86,15.14 41.3,27.99 51.85,39 11.02,10.56 18.36,19.28 22.03,25.7 4.14,5.97 7.8,13.31 10.1,22.03 2.75,8.71 4.59,17.9 5.51,28.91 0.91,10.55 1.38,24.32 1.38,40.38 0,34.88 -4.14,59.2 -11.94,72.97 -8.26,14.22 -17.9,21.11 -29.82,21.11 -13.32,0 -28.92,-7.34 -46.35,-22.03 -17.44,-15.15 -39.47,-31.21 -66.55,-49.1 -26.61,-17.9 -59.2,-34.42 -97.28,-49.1 -38.1,-15.15 -83.07,-22.49 -135.39,-22.49 -106.46,0 -188.15,41.3 -245.06,122.98 -56.9,82.16 -85.35,201.01 -85.35,357.04 0,78.02 7.33,146.39 22.03,205.13 14.68,58.75 36.71,107.84 65.16,147.31 28.91,39.47 63.79,68.84 105.55,88.11 41.76,19.28 89.49,28.91 143.17,28.91 50.95,0 95.92,-8.25 134.47,-24.32 38.54,-16.06 72.05,-33.95 100.05,-53.23 28.45,-19.27 52.3,-36.71 71.58,-52.32 19.28,-15.6 33.97,-23.4 44.98,-23.4 5.96,0 11.47,1.84 16.06,5.05 4.58,3.67 8.26,9.64 11.47,18.35 3.22,8.72 5.05,19.28 6.43,32.13 1.38,13.3 2.29,28.45 2.29,46.35zm-1430.43 -538.76c2.75,-116.57 -22.94,-208.35 -77.55,-274.43 -54.16,-66.55 -134.47,-99.59 -240.93,-99.59 -55.07,0 -102.79,10.56 -144.1,31.21 -41.3,20.2 -75.72,47.73 -103.26,81.69 -27.99,33.95 -49.56,73.88 -64.7,118.85 -15.15,45.43 -23.87,92.7 -25.7,142.27l656.24 0zm223.04 65.62c0,34.88 -8.73,60.11 -26.17,74.8 -17.44,14.69 -37.17,22.03 -59.65,22.03l-793.46 0c0,67.46 6.88,127.58 20.2,181.73 13.3,53.69 35.79,99.59 67.45,138.13 31.21,38.55 72.05,68.37 122.07,89.03 50.48,20.65 111.51,30.75 184.48,30.75 57.37,0 108.3,-4.59 153.29,-14.23 44.5,-9.18 83.52,-19.73 116.1,-31.66 32.57,-11.47 59.65,-22.03 80.76,-31.21 21.12,-9.64 36.71,-14.22 47.73,-14.22 5.97,0 11.94,1.37 16.52,4.58 5.05,3.21 8.72,7.8 11.48,14.23 2.74,6.42 5.04,15.15 6.42,26.16 0.91,11.01 1.84,24.78 1.84,40.84 0,11.94 -0.47,22.03 -1.38,30.29 -0.92,8.71 -1.84,16.06 -3.21,22.94 -1.38,6.89 -3.67,12.85 -6.88,18.36 -3.22,5.05 -7.35,10.55 -11.94,15.14 -5.05,5.05 -19.73,13.31 -44.05,24.32 -23.87,11.02 -55.53,22.03 -94.08,33.05 -38.55,10.56 -83.07,20.19 -133.54,28.91 -50.49,8.26 -104.64,12.85 -162,12.85 -99.59,0 -186.78,-14.23 -261.58,-41.76 -74.8,-27.99 -137.68,-69.29 -189.08,-123.9 -50.93,-54.61 -89.47,-123 -115.64,-205.6 -25.7,-82.6 -39,-178.52 -39,-287.74 0,-103.71 13.76,-197.33 40.38,-280.39 27.07,-82.61 65.62,-153.28 116.56,-211.1 50.48,-57.82 111.51,-101.87 183.56,-133.09 71.6,-30.74 151.91,-46.35 240.47,-46.35 95,0 175.77,15.15 242.77,45.9 66.54,30.29 121.61,71.59 164.75,122.99 43.14,51.4 74.34,111.96 94.54,181.27 20.18,69.75 30.29,143.63 30.29,222.57l0 40.38zm-1665.4 -193.66c-60.12,-74.34 -118.4,-130.79 -174.39,-169.8 -55.99,-39 -114.26,-58.74 -175.3,-58.74 -56.44,0 -104.64,13.77 -143.64,40.39 -39.46,27.07 -71.59,62.4 -96.37,106.46 -24.78,43.6 -42.68,93.62 -53.69,149.15 -11.48,55.53 -16.98,111.98 -16.98,169.34 0,61.04 4.59,120.69 14.23,178.97 9.18,57.82 25.69,109.69 49.09,155.11 23.41,45.43 54.16,81.69 92.7,108.77 38.55,27.53 87.2,41.3 145.03,41.3 29.82,0 58.27,-4.13 85.81,-12.39 27.07,-7.8 55.07,-21.57 83.98,-40.38 28.45,-18.82 58.74,-43.14 89.95,-72.98 31.2,-30.28 64.7,-66.99 99.58,-111.05l0 -484.15zm223.03 851.28c0,6.88 -1.38,13.3 -4.59,18.82 -3.21,5.04 -8.72,9.63 -16.06,12.85 -7.81,2.75 -17.9,5.5 -30.29,7.33 -12.85,1.85 -27.99,2.76 -45.89,2.76 -18.81,0 -34.42,-0.91 -46.81,-2.76 -12.85,-1.83 -22.95,-4.58 -31.2,-7.33 -7.81,-3.22 -13.78,-7.81 -17.44,-12.85 -3.67,-5.52 -5.51,-11.94 -5.51,-18.82l0 -160.16c-63.33,69.29 -129.41,122.99 -198.25,161.54 -68.38,38.55 -143.64,57.82 -224.86,57.82 -89.04,0 -164.75,-17.44 -227.62,-51.85 -62.41,-34.43 -113.36,-81.24 -152.36,-139.98 -39.01,-58.73 -67.46,-127.57 -85.36,-206.97 -17.9,-79.38 -27.08,-162.9 -27.08,-250.56 0,-104.17 11.48,-198.25 33.5,-281.77 22.49,-83.98 55.99,-155.57 99.58,-214.32 44.06,-59.2 98.67,-104.62 163.38,-136.75 65.16,-31.67 139.97,-47.73 225.32,-47.73 70.68,0 135.38,15.61 194.12,46.35 58.75,31.22 117.03,76.64 174.39,136.76l0 -703.51c0,-5.96 1.38,-11.93 4.59,-17.9 3.21,-5.96 9.18,-10.55 18.35,-13.31 8.73,-3.21 20.2,-5.96 33.96,-8.26 13.77,-2.29 31.67,-3.21 53.24,-3.21 22.49,0 40.84,0.92 55.07,3.21 14.22,2.3 25.7,5.05 33.5,8.26 8.26,2.76 14.23,7.35 18.35,13.31 4.14,5.97 5.97,11.94 5.97,17.9l0 1791.13zm-3356.93 -447.89c0,46.8 7.8,89.48 23.4,127.57 15.61,38.55 39.01,72.05 69.3,100.5 30.29,27.99 68.37,50.02 114.27,65.63 45.89,15.6 98.67,23.86 158.78,23.86 36.72,0 72.51,-4.13 107.39,-11.47 34.88,-7.8 68.38,-17.91 100.04,-31.21 32.12,-12.85 62.41,-28.46 90.86,-46.81 28.91,-18.36 55.07,-38.09 79.4,-58.74 -46.82,-40.38 -93.16,-82.14 -139.05,-125.74 -46.35,-43.14 -90.87,-87.2 -134.01,-130.79 -43.14,-44.05 -84.43,-87.65 -124.36,-131.25 -39.92,-43.6 -76.18,-85.81 -109.68,-127.12 -44.52,28.91 -82.15,57.37 -111.98,85.36 -30.28,28.45 -54.14,56.45 -72.5,84.9 -18.36,27.99 -31.67,56.44 -39.93,85.36 -7.8,28.45 -11.93,58.73 -11.93,89.95zm156.03 -935.72c0,24.32 3.21,49.09 10.09,73.88 6.43,25.24 16.98,51.4 30.76,78.93 13.76,27.08 30.74,56.44 50.93,88.11 20.19,31.21 44.51,66.08 72.05,104.63 65.62,-36.71 120.23,-70.67 164.75,-101.42 44.51,-31.2 79.85,-60.58 106.93,-89.49 26.61,-28.44 46.35,-57.35 58.27,-85.81 12.4,-28.91 18.37,-59.2 18.37,-91.79 0,-25.7 -4.59,-50.93 -14.23,-74.34 -9.18,-23.86 -24.32,-44.97 -44.97,-63.32 -20.66,-18.36 -46.81,-33.05 -78.02,-43.61 -31.2,-11 -68.84,-16.06 -112.89,-16.06 -47.73,0 -87.65,5.97 -120.23,17.91 -33.05,12.38 -59.67,28.44 -80.78,48.64 -21.11,20.19 -36.71,43.59 -46.35,70.21 -10.09,27.08 -14.68,55.07 -14.68,83.53zm-396.96 958.66c0,-49.11 6.89,-95.91 20.19,-140.43 13.77,-44.51 34.88,-87.65 63.34,-128.95 28.91,-41.76 66.08,-82.14 112.43,-121.16 45.88,-39 101.87,-78.47 167.04,-117.48 -35.79,-48.64 -66.55,-92.7 -91.78,-132.16 -25.7,-39.47 -46.82,-76.18 -63.33,-110.14 -16.52,-33.96 -28.46,-66.55 -35.8,-97.29 -6.88,-31.2 -10.55,-61.96 -10.55,-93.62 0,-55.53 9.18,-108.76 27.99,-159.24 19.28,-50.48 49.1,-95.45 90.86,-134.47 41.76,-39 95.46,-69.74 160.63,-92.69 65.62,-22.95 145.01,-34.42 238.17,-34.42 78.94,0 147.31,8.72 205.13,25.7 57.82,16.98 105.55,41.3 143.64,72.5 38.09,31.22 67.01,69.31 86.28,113.81 19.27,44.06 28.91,93.63 28.91,148.24 0,53.23 -8.72,101.41 -25.7,145.47 -16.98,43.6 -44.51,86.27 -82.15,127.57 -37.63,41.31 -85.81,82.16 -144.56,123 -58.73,40.83 -129.4,83.52 -212.93,128.49 30.29,36.71 63.79,75.26 99.59,114.73 35.79,39.93 72.96,80.31 111.97,120.69 39.01,40.38 78.94,79.85 119.78,118.86 40.84,39.01 80.77,76.18 120.23,112.43 17.9,-24.32 34.42,-51.85 48.64,-83.06 14.23,-30.75 26.62,-63.33 37.64,-98.21 10.56,-34.41 18.81,-69.29 24.32,-105.08 5.04,-36.26 7.8,-72.52 7.8,-109.22l0 -48.2c0,-9.17 1.83,-16.52 4.59,-22.48 3.21,-5.51 8.26,-10.55 15.61,-14.69 7.33,-4.12 17.89,-6.88 31.65,-8.71 13.78,-1.84 32.13,-2.76 54.61,-2.76 19.74,0 36.26,0.46 50.03,1.38 14.23,0.92 25.7,3.21 34.42,5.97 9.18,3.21 15.6,8.26 19.73,15.14 3.67,6.42 5.97,15.6 5.97,27.53l0 33.5c0,50.02 -4.13,99.58 -12.86,147.77 -8.71,48.65 -20.18,95.91 -34.87,141.81 -14.69,46.35 -33.04,90.4 -55.07,132.63 -22.03,42.21 -46.35,81.22 -73.43,117.02 40.38,32.12 75.72,59.2 105.55,80.31 29.84,21.56 55.53,39 76.64,52.77 21.11,13.31 38.55,22.94 52.32,27.99 14.22,5.51 25.24,8.26 34.42,8.26 9.18,0 17.44,-0.46 25.69,-1.38 7.81,-0.91 14.23,0.47 19.28,4.13 5.04,3.67 8.72,10.56 11.47,21.58 2.76,10.55 4.13,27.07 4.13,49.55 0,22.49 -0.45,40.39 -1.37,53.7 -0.93,13.31 -2.29,23.41 -4.59,30.29 -2.29,6.88 -6.43,12.39 -11.48,16.97 -5.51,4.14 -15.14,8.27 -29.83,11.94 -14.23,3.67 -33.03,5.5 -56.44,5.5 -17.9,0 -37.63,-3.21 -59.2,-9.63 -21.57,-5.96 -46.35,-16.98 -75.26,-32.58 -28.46,-16.07 -61.95,-37.17 -100.04,-64.25 -38.09,-26.62 -82.61,-60.58 -133.55,-101.88 -38.08,30.29 -77.55,58.74 -119.32,84.44 -41.76,26.15 -85.82,48.19 -133.08,66.55 -46.81,18.35 -96.37,33.03 -147.77,43.12 -51.39,10.56 -107.38,15.61 -167.5,15.61 -56.45,0 -110.14,-5.05 -160.62,-14.68 -50.48,-10.1 -97.29,-24.32 -140.43,-42.68 -43.13,-18.36 -81.69,-41.3 -115.64,-69.3 -33.96,-27.53 -62.87,-59.2 -86.74,-94.53 -23.86,-35.34 -42.21,-75.27 -55.06,-118.86 -12.85,-44.05 -19.74,-91.78 -19.74,-142.72zm-2918.15 -316.87c2.76,-116.56 -22.94,-208.34 -77.55,-274.43 -54.15,-66.54 -134.46,-99.59 -240.92,-99.59 -55.08,0 -102.8,10.56 -144.1,31.21 -41.31,20.2 -75.73,47.73 -103.26,81.69 -27.99,33.96 -49.57,73.88 -64.71,118.86 -15.15,45.43 -23.86,92.7 -25.69,142.26l656.23 0zm223.04 65.63c0,34.88 -8.72,60.11 -26.16,74.79 -17.44,14.7 -37.17,22.03 -59.66,22.03l-793.45 0c0,67.46 6.88,127.58 20.19,181.74 13.31,53.68 35.79,99.58 67.46,138.13 31.2,38.55 72.05,68.37 122.07,89.02 50.47,20.65 111.51,30.76 184.48,30.76 57.37,0 108.3,-4.59 153.28,-14.23 44.51,-9.18 83.52,-19.74 116.1,-31.67 32.58,-11.47 59.66,-22.03 80.76,-31.21 21.12,-9.64 36.72,-14.22 47.73,-14.22 5.97,0 11.94,1.37 16.52,4.58 5.06,3.22 8.73,7.81 11.48,14.23 2.75,6.43 5.05,15.15 6.43,26.17 0.91,11 1.83,24.77 1.83,40.83 0,11.94 -0.46,22.03 -1.38,30.29 -0.92,8.72 -1.83,16.06 -3.21,22.95 -1.38,6.89 -3.67,12.84 -6.88,18.36 -3.21,5.04 -7.35,10.55 -11.94,15.14 -5.04,5.04 -19.73,13.3 -44.05,24.32 -23.86,11.01 -55.53,22.03 -94.08,33.04 -38.55,10.56 -83.06,20.2 -133.54,28.91 -50.48,8.26 -104.64,12.85 -161.99,12.85 -99.59,0 -186.78,-14.22 -261.59,-41.76 -74.8,-27.99 -137.67,-69.29 -189.07,-123.9 -50.93,-54.61 -89.48,-122.99 -115.65,-205.6 -25.69,-82.6 -39,-178.51 -39,-287.73 0,-103.72 13.76,-197.33 40.38,-280.4 27.08,-82.6 65.63,-153.28 116.57,-211.1 50.47,-57.82 111.51,-101.87 183.56,-133.08 71.59,-30.75 151.9,-46.35 240.47,-46.35 95,0 175.76,15.15 242.77,45.89 66.53,30.29 121.61,71.59 164.75,122.99 43.14,51.4 74.34,111.97 94.53,181.27 20.19,69.75 30.29,143.63 30.29,222.57l0 40.39zm-3989.29 686.63c0,6.88 -1.83,13.3 -5.04,17.89 -3.67,5.05 -9.64,9.18 -17.44,12.85 -8.26,3.68 -19.28,6.43 -33.96,8.26 -14.23,1.84 -32.12,2.76 -53.7,2.76 -22.48,0 -40.84,-0.92 -55.06,-2.76 -14.23,-1.83 -25.7,-4.58 -34.42,-8.26 -8.27,-3.67 -14.22,-7.8 -17.9,-12.85 -3.67,-4.59 -5.5,-11.01 -5.5,-17.89l0 -735.64c0,-50.94 -4.6,-97.75 -13.31,-139.51 -9.18,-42.21 -23.41,-78.47 -43.14,-109.22 -19.74,-30.29 -44.97,-53.69 -75.26,-69.76 -30.29,-16.06 -66.55,-24.32 -107.39,-24.32 -51.39,0 -102.79,19.74 -154.19,59.2 -51.4,39.47 -108.3,97.3 -169.8,173.47l0 845.78c0,6.88 -1.84,13.3 -5.51,17.89 -3.67,5.05 -9.64,9.18 -18.35,12.85 -8.26,3.68 -19.74,6.43 -33.96,8.26 -14.69,1.84 -32.59,2.76 -54.15,2.76 -20.65,0 -38.09,-0.92 -52.78,-2.76 -15.15,-1.83 -26.62,-4.58 -35.33,-8.26 -8.26,-3.67 -14.23,-7.8 -17.44,-12.85 -2.76,-4.59 -4.59,-11.01 -4.59,-17.89l0 -735.64c0,-50.94 -5.05,-97.75 -14.69,-139.51 -10.09,-42.21 -24.78,-78.47 -44.51,-109.22 -19.73,-30.29 -44.52,-53.69 -74.34,-69.76 -30.29,-16.06 -65.63,-24.32 -106.93,-24.32 -51.4,0 -102.8,19.74 -154.65,59.2 -51.86,39.47 -108.76,97.3 -169.34,173.47l0 845.78c0,6.88 -1.84,13.3 -5.51,17.89 -3.67,5.05 -9.64,9.18 -17.43,12.85 -8.27,3.68 -19.28,6.43 -33.51,8.26 -14.69,1.84 -33.04,2.76 -55.53,2.76 -21.1,0 -39,-0.92 -53.69,-2.76 -14.22,-1.83 -25.7,-4.58 -33.96,-8.26 -8.72,-3.67 -14.69,-7.8 -17.44,-12.85 -3.21,-4.59 -5.05,-11.01 -5.05,-17.89l0 -1210.15c0,-7.35 1.38,-13.31 4.14,-18.35 2.75,-4.59 8.25,-9.18 16.06,-13.32 8.26,-4.12 18.35,-6.42 31.2,-7.8 12.39,-1.37 28.91,-2.29 49.56,-2.29 19.74,0 36.26,0.92 49.11,2.29 12.85,1.38 22.94,3.68 30.29,7.8 6.88,4.14 12.39,8.73 15.6,13.32 2.75,5.04 4.58,11 4.58,18.35l0 160.16c67.93,-76.18 134.01,-132.16 198.26,-167.51 64.24,-35.33 128.96,-53.23 194.11,-53.23 50.49,0 95.46,5.97 135.39,17.44 39.93,11.94 74.79,28 105.55,49.11 30.28,21.1 56.44,46.35 78.01,75.26 21.11,29.37 39.47,61.95 53.7,97.75 40.38,-44.06 78.47,-81.23 114.72,-111.52 36.26,-30.75 71.59,-55.53 105.09,-74.34 33.5,-18.82 66.08,-32.13 98.21,-40.85 31.66,-8.72 63.79,-12.85 95.91,-12.85 78.02,0 143.64,13.77 196.42,41.3 52.76,27.08 95.45,63.79 128.49,109.22 32.58,45.9 55.99,99.59 69.75,160.62 13.77,61.5 20.65,126.2 20.65,194.58l0 765.01zm1245.57 -620.37c0,-65.15 -6.42,-127.11 -18.36,-185.39 -11.92,-58.29 -32.12,-109.23 -59.65,-153.28 -28,-44.06 -65.63,-78.47 -112.89,-104.17 -47.73,-25.7 -106.93,-38.55 -177.6,-38.55 -65.63,0 -121.61,11.93 -168.89,35.34 -46.8,22.94 -85.81,55.98 -116.1,98.67 -30.74,42.67 -53.23,93.15 -67.91,151.43 -14.7,58.28 -22.03,121.62 -22.03,190.91 0,66.08 5.96,128.49 17.89,186.78 11.93,58.28 32.13,109.22 60.58,152.36 27.99,43.59 66.08,78.01 113.35,103.7 47.73,25.7 106.93,38.1 177.6,38.1 64.71,0 120.7,-11.48 167.96,-34.88 47.73,-23.4 86.73,-55.98 117.02,-98.21 30.75,-41.76 53.23,-92.23 67.46,-150.52 14.23,-58.28 21.57,-122.07 21.57,-192.29zm233.58 -14.68c0,98.67 -12.85,189.53 -39,272.14 -25.7,83.06 -64.7,154.65 -116.1,214.77 -51.4,60.11 -116.11,106.93 -193.66,140.43 -77.56,33.49 -167.51,50.47 -269.38,50.47 -99.58,0 -186.33,-15.14 -260.21,-44.51 -73.88,-29.37 -135.83,-72.51 -184.94,-128.95 -49.11,-56.45 -85.82,-125.28 -110.14,-206.06 -24.32,-80.31 -36.25,-172.09 -36.25,-273.97 0,-98.66 12.85,-189.53 38.08,-272.13 25.7,-83.06 64.25,-154.65 115.66,-214.77 51.4,-60.12 116.1,-106.47 193.19,-139.51 77.1,-33.49 167.05,-50.02 269.84,-50.02 99.59,0 186.33,14.68 260.21,44.51 73.88,29.37 135.84,72.51 184.94,128.95 49.56,56.46 86.27,125.29 111.05,205.6 24.79,80.77 36.71,171.63 36.71,273.05zm3056.15 -1008.11c0,52.31 -9.64,87.65 -29.38,106.46 -19.73,18.82 -55.99,28 -108.76,28 -52.31,0 -87.65,-9.18 -106.92,-27.54 -19.27,-18.36 -28.91,-52.77 -28.91,-104.17 0,-51.86 9.64,-87.2 29.37,-106.02 19.73,-18.8 55.98,-28.44 108.76,-28.44 52.31,0 87.65,9.17 106.93,27.53 19.27,18.35 28.91,53.23 28.91,104.18zm-25.24 1619.03c0,6.88 -1.84,13.31 -5.52,17.9 -3.67,5.04 -9.63,9.18 -17.43,12.85 -8.26,3.67 -19.27,6.42 -33.5,8.26 -14.69,1.84 -33.04,2.75 -55.53,2.75 -21.11,0 -39,-0.91 -53.7,-2.75 -14.21,-1.84 -25.7,-4.59 -33.95,-8.26 -8.72,-3.67 -14.69,-7.81 -17.44,-12.85 -3.22,-4.59 -5.05,-11.02 -5.05,-17.9l0 -1210.15c0,-6.42 1.83,-11.92 5.05,-17.44 2.75,-5.5 8.72,-10.09 17.44,-13.3 8.25,-3.67 19.74,-6.43 33.95,-8.26 14.7,-1.83 32.59,-2.76 53.7,-2.76 22.49,0 40.84,0.93 55.53,2.76 14.23,1.83 25.24,4.59 33.5,8.26 7.8,3.21 13.76,7.8 17.43,13.3 3.68,5.52 5.52,11.02 5.52,17.44l0 1210.15zm-2383.5 41.15c-9.45,0.36 -16.6,-0.97 -21.22,-4.64 -4.85,-3.01 -9.22,-8.43 -12.11,-15.13l-540.38 -1252.71c-7.3,-16.93 -10.66,-42.08 12.51,-43.84l186.72 -0.39c8.42,-0.39 15.77,1.39 21.41,5.08 5.65,3.71 9.63,8.23 12.33,14.48l393.19 909.51 393.19 -909.51c2.7,-6.25 6.68,-10.77 12.34,-14.48 5.64,-3.69 12.99,-5.47 21.41,-5.08 37.76,0.67 181,-3.33 190.97,3.79 17.39,4.47 19.21,30.89 12.98,45.16l-545.1 1247.99c-2.92,6.68 -7.26,12.12 -12.11,15.13 -11,8.72 -106.57,4.32 -126.13,4.64zm2651.75 -222.94c-1.93,15.91 -3.05,29.01 -3.53,40.71 -0.43,11.23 0.25,21.05 1.22,28.53 1.37,7.96 3.33,14.98 5.93,20.59 2.53,6.08 8.47,14.97 18.81,26.2 9.86,11.23 27.76,25.73 52.85,42.57 25.57,16.84 54.62,31.82 87.19,44.92 32.51,13.57 68.63,24.32 107.91,32.28 39.21,8.42 80.34,12.63 123.38,12.63 88.42,0 168.83,-14.97 240.66,-43.98 23.97,-9.76 46.82,-20.97 68.61,-33.63 21.63,-11.08 42.54,-23.45 62.72,-37.11 173.87,-116.97 249.3,-357.07 128.73,-509.16 -46.17,-58.25 -119.22,-101.46 -219.14,-129.64 -99.99,-27.56 -164.18,-45.72 -192.78,-52.61 -109.48,-31.94 -176.49,-52.61 -200.33,-62.63 -202.93,-85.3 5.94,-282.94 206.17,-282.94 53.34,0 98.29,7.48 135.25,22.93 37.01,14.97 68.19,31.81 93.11,50.05 25.39,18.25 45.86,34.62 61.77,50.07 15.97,14.96 30.96,22.45 44.53,22.45 12.16,0 22.84,-7.02 33.02,-21.51 9.65,-14.05 16.87,-38.84 21.18,-74.4 1.99,-16.37 3.21,-30.41 3.59,-41.17 0.42,-11.23 -0.32,-20.59 -2.05,-29.47 -1.26,-8.9 -4.09,-16.38 -7.57,-22.46 -2.94,-6.55 -9.35,-15.44 -19.28,-26.2 -9.39,-11.23 -25.58,-24.33 -48.04,-39.76 -22,-15.45 -48.36,-29.48 -77.82,-41.18 -29.47,-11.7 -62.42,-21.52 -98.53,-28.54 -36.06,-7.49 -73.97,-11.23 -113.27,-11.23 -68.66,0 -134.16,9.65 -197.08,28.96 -30.69,8.49 -59.11,19.27 -85.23,32.31 -22.03,11.17 -42.47,23.01 -61.32,35.53 -228.93,149.54 -266.09,383.36 -65.84,538.14 43.03,32.57 94.4,58.24 154.28,75.78 59.17,18.16 127.11,36.32 202.97,56.37 117.23,30.05 191.62,56.99 223.18,80.79 118.32,86.65 1.9,213.54 -147.19,268.74 -45.78,16.94 -94.81,29.47 -149.54,29.47 -51.93,0 -96.76,-8.42 -134.08,-24.79 -37.31,-16.38 -69.25,-34.62 -95.42,-54.27 -26.62,-19.65 -48.79,-37.43 -66.51,-53.34 -17.73,-15.91 -31.74,-23.86 -42.97,-23.86 -6.07,0 -11.92,1.88 -16.99,5.15 -5.13,3.74 -9.62,9.83 -13.97,18.71 -4.35,8.89 -7.52,19.65 -10.52,32.75 -3.05,13.56 -5.85,29.01 -8.06,47.25zm-3634.92 -1393.56c-60.92,71.25 -111.72,119.38 -153.36,144.99 -41.64,25.63 -88.59,38.13 -141.37,38.13 -52.31,0 -76.96,-12.5 -74.85,-37.49 3.29,-39.11 182.81,-275.49 205.13,-305.93 13.13,-17.91 281.7,-35.7 277.3,16.46 -2.1,24.99 -53.52,74.46 -112.85,143.84z"/>
  <path class="fil2 str1" d="M26210.08 10995.35l0 -2292.57 -1980.69 0 0 2333.56 1980.69 -40.99zm860.57 808.22l-874.24 0 0 -179.86c-350.6,47.81 -703.48,95.62 -1054.08,138.88 -434.85,54.63 -785.44,81.95 -1047.25,81.95 -484.94,0 -726.27,-241.31 -726.27,-721.69l0 -2367.71c0,-498.58 250.44,-746.75 753.58,-746.75l2087.69 0 0 -1953.36 -1907.84 0 0 1106.45 -860.57 0 0 -1095.07c0,-500.85 248.16,-753.57 746.74,-753.57l2135.5 0c496.3,0 746.74,252.72 746.74,753.57l0 5737.16z"/>
  <polygon class="fil2 str1" points="21895.83,11803.57 21021.6,11803.57 21021.6,1365.14 21895.83,1365.14 "/>
  <path class="fil2 str1" d="M18658.43 10275.94l0 -4168.54 -1953.36 52.36 0 4862.91 1227.11 0c484.94,0 726.25,-248.15 726.25,-746.73zm887.89 134.32c0,398.41 -132.03,730.8 -393.86,997.17 -261.81,264.09 -591.92,396.14 -985.78,396.14l-1461.61 0 0 2461.05 -887.89 0 0 -8951.78 887.89 0 0 182.14c350.61,-45.54 703.48,-91.06 1054.09,-134.32 443.94,-56.92 794.55,-86.52 1047.25,-86.52 494.03,0 739.91,241.33 739.91,726.25l0 4409.87z"/>
  <path class="fil2 str1" d="M14378.34 11803.57l-887.89 0 0 -5696.17 -1935.16 52.36 0 5643.81 -878.78 0 0 -5696.17 -1935.16 52.36 0 5643.81 -887.89 0 0 -6490.73 887.89 0 0 182.14c346.05,-45.54 694.39,-93.35 1040.44,-141.16 423.45,-52.36 771.78,-79.68 1047.25,-79.68 270.92,0 471.26,81.97 601.04,245.88 373.36,-47.81 744.47,-100.17 1113.28,-152.53 484.92,-63.75 851.47,-93.35 1099.62,-93.35 489.48,0 735.36,241.33 735.36,726.25l0 5803.18z"/>
  <path class="fil2 str1" d="M5540.39 10995.35l0 -2292.57 -1980.69 0 0 2333.56 1980.69 -40.99zm860.58 808.22l-874.25 0 0 -179.86c-350.6,47.81 -703.48,95.62 -1054.08,138.88 -434.84,54.63 -785.44,81.95 -1047.25,81.95 -484.94,0 -726.26,-241.31 -726.26,-721.69l0 -2367.71c0,-498.58 250.43,-746.75 753.57,-746.75l2087.69 0 0 -1953.36 -1907.84 0 0 1106.45 -860.57 0 0 -1095.07c0,-500.85 248.16,-753.57 746.74,-753.57l2135.5 0c496.31,0 746.75,252.72 746.75,753.57l0 5737.16z"/>
 </g>
</svg>
