<?xml version="1.0" encoding="UTF-8"?>
<!DOCTYPE svg PUBLIC "-//W3C//DTD SVG 1.1//EN" "http://www.w3.org/Graphics/SVG/1.1/DTD/svg11.dtd">
<!-- Creator: CorelDRAW 2019 (64 Bit) -->
<svg xmlns="http://www.w3.org/2000/svg" xml:space="preserve" width="297mm" height="210mm" version="1.1" style="shape-rendering:geometricPrecision; text-rendering:geometricPrecision; image-rendering:optimizeQuality; fill-rule:evenodd; clip-rule:evenodd"
viewBox="0 0 29700 21000"
 xmlns:xlink="http://www.w3.org/1999/xlink">
 <defs>
  <style type="text/css">
   <![CDATA[
    .fil0 {fill:#373435;fill-rule:nonzero}
   ]]>
  </style>
 </defs>
 <g id="Camada_x0020_1">
  <metadata id="CorelCorpID_0Corel-Layer"/>
  <path class="fil0" d="M15785.62 16635.41c0,10.78 -0.26,19.81 -0.76,27.08 -0.5,7.53 -1.5,13.3 -2.76,17.31 -1.5,4.26 -3.51,7.27 -5.52,9.53 -2.25,2.26 -5.26,3.26 -9.27,3.26 -4.02,0 -8.78,-1 -14.3,-3.26 -5.77,-2.26 -12.04,-4.27 -19.06,-6.52 -7.27,-2.26 -15.05,-4.26 -23.83,-6.27 -9.02,-2.01 -18.55,-3.01 -28.84,-3.01 -12.29,0 -24.07,2.51 -35.86,7.52 -11.79,4.77 -24.33,12.79 -37.12,24.08 -13.04,11.28 -26.58,26.33 -40.88,44.89 -14.04,18.56 -29.84,41.38 -46.89,68.22l0 435.12c0,3.76 -1.01,7.27 -3.02,9.78 -2,2.76 -5.26,5.02 -9.52,7.02 -4.52,2.01 -10.54,3.51 -18.31,4.52 -8.03,1 -18.06,1.5 -30.35,1.5 -11.53,0 -21.31,-0.5 -29.34,-1.5 -7.77,-1.01 -14.05,-2.51 -18.56,-4.52 -4.76,-2 -8.03,-4.26 -9.53,-7.02 -1.76,-2.51 -2.76,-6.02 -2.76,-9.78l0 -661.34c0,-4.01 0.75,-7.27 2.26,-10.03 1.51,-2.51 4.51,-5.02 8.78,-7.28 4.51,-2.25 10.03,-3.51 17.05,-4.26 6.77,-0.75 15.8,-1.25 27.08,-1.25 10.79,0 19.82,0.5 26.84,1.25 7.02,0.75 12.54,2.01 16.55,4.26 3.76,2.26 6.78,4.77 8.53,7.28 1.5,2.76 2.51,6.02 2.51,10.03l0 96.31c18.05,-26.59 35.11,-48.16 50.91,-64.71 16.05,-16.55 31.1,-29.84 45.39,-39.37 14.04,-9.54 28.09,-16.05 42.13,-19.81 14.05,-3.51 28.1,-5.52 42.14,-5.52 6.52,0 13.79,0.5 21.82,1.25 8.03,0.76 16.55,2.01 25.33,4.01 8.77,2.01 16.8,4.02 23.83,6.53 7.27,2.5 12.28,5.01 15.04,7.27 3.01,2.51 5.02,4.76 6.02,7.02 1,2.26 1.76,5.02 2.51,8.53 0.75,3.51 1.25,8.52 1.5,15.04 0.26,6.52 0.26,15.55 0.26,26.84zm-692.7 287.91c0,-35.61 -3.51,-69.47 -10.03,-101.32 -6.52,-31.85 -17.55,-59.69 -32.6,-83.77 -15.3,-24.07 -35.87,-42.88 -61.69,-56.93 -26.09,-14.04 -58.44,-21.06 -97.06,-21.06 -35.87,0 -66.46,6.52 -92.3,19.31 -25.58,12.54 -46.89,30.6 -63.45,53.92 -16.8,23.32 -29.09,50.91 -37.11,82.76 -8.03,31.85 -12.04,66.46 -12.04,104.33 0,36.11 3.26,70.22 9.78,102.07 6.52,31.85 17.56,59.69 33.11,83.27 15.29,23.82 36.11,42.63 61.94,56.67 26.08,14.05 58.43,20.82 97.06,20.82 35.36,0 65.96,-6.27 91.79,-19.06 26.08,-12.79 47.4,-30.59 63.95,-53.67 16.8,-22.82 29.09,-50.41 36.87,-82.26 7.77,-31.85 11.78,-66.71 11.78,-105.08zm127.65 -8.03c0,53.93 -7.02,103.58 -21.31,148.72 -14.05,45.4 -35.36,84.52 -63.45,117.37 -28.09,32.86 -63.45,58.44 -105.83,76.75 -42.39,18.3 -91.55,27.58 -147.22,27.58 -54.42,0 -101.83,-8.27 -142.2,-24.32 -40.38,-16.05 -74.23,-39.63 -101.07,-70.47 -26.84,-30.85 -46.9,-68.47 -60.19,-112.61 -13.29,-43.89 -19.81,-94.05 -19.81,-149.73 0,-53.91 7.02,-103.57 20.81,-148.71 14.05,-45.4 35.11,-84.52 63.2,-117.38 28.09,-32.85 63.45,-58.18 105.59,-76.24 42.13,-18.3 91.28,-27.33 147.46,-27.33 54.43,0 101.83,8.02 142.2,24.32 40.38,16.05 74.24,39.63 101.07,70.47 27.09,30.86 47.15,68.47 60.69,112.36 13.55,44.14 20.06,93.8 20.06,149.22zm-763.16 237.25c0,8.53 -0.25,15.55 -0.75,21.82 -0.5,6.02 -1.5,11.29 -2.51,15.3 -1.25,4.26 -2.76,8.03 -4.51,11.04 -1.76,3.26 -5.52,8.02 -11.79,14.04 -6.02,6.02 -16.55,13.79 -31.1,22.82 -14.79,9.03 -31.34,17.06 -49.65,24.08 -18.31,7.27 -38.37,13.04 -59.94,17.3 -21.57,4.51 -43.89,6.77 -66.96,6.77 -47.4,0 -89.53,-8.02 -126.15,-23.57 -36.87,-15.8 -67.46,-38.62 -92.3,-68.72 -24.82,-30.09 -43.63,-67.21 -56.67,-110.85 -12.79,-43.89 -19.31,-94.55 -19.31,-151.73 0,-65.21 7.77,-121.13 23.82,-168.03 15.8,-46.65 37.62,-85.02 65.46,-114.86 27.58,-29.85 60.19,-52.17 97.56,-66.46 37.62,-14.55 77.99,-21.82 121.63,-21.82 21.07,0 41.63,2 61.45,6.02 19.81,3.76 38.11,9.02 54.67,15.29 16.55,6.28 31.6,13.8 44.39,22.08 13.04,8.27 22.57,15.29 28.34,21.31 6.02,5.77 10.03,10.54 12.03,14.05 2.26,3.26 4.27,7.27 5.52,12.04 1.51,4.76 2.51,9.78 3.01,15.8 0.5,5.76 0.76,13.29 0.76,22.07 0,19.06 -2.26,32.35 -6.53,39.87 -4.51,7.77 -9.78,11.54 -16.3,11.54 -7.27,0 -15.8,-4.01 -25.33,-12.04 -9.53,-8.28 -21.57,-17.06 -36.36,-26.84 -14.55,-9.78 -32.36,-18.8 -53.17,-26.83 -20.81,-8.28 -45.39,-12.29 -73.98,-12.29 -58.19,0 -102.83,22.57 -133.93,67.21 -31.09,44.9 -46.64,109.85 -46.64,195.12 0,42.64 4.01,80 12.03,112.1 8.03,32.11 20.07,58.94 35.61,80.51 15.8,21.57 34.87,37.62 57.69,48.15 22.82,10.53 48.9,15.8 78.24,15.8 27.84,0 52.42,-4.51 73.49,-13.29 21.06,-8.78 39.37,-18.56 54.67,-29.09 15.55,-10.53 28.59,-20.06 39.12,-28.59 10.54,-8.53 18.56,-12.79 24.58,-12.79 3.26,0 6.27,1 8.78,2.76 2.51,2 4.52,5.26 6.27,10.03 1.76,4.76 2.76,10.53 3.51,17.55 0.76,7.27 1.25,15.55 1.25,25.33zm-781.72 -294.43c1.51,-63.7 -12.54,-113.86 -42.38,-149.97 -29.6,-36.37 -73.48,-54.43 -131.67,-54.43 -30.1,0 -56.17,5.77 -78.75,17.06 -22.57,11.04 -41.38,26.08 -56.43,44.64 -15.29,18.56 -27.08,40.38 -35.36,64.96 -8.28,24.82 -13.04,50.66 -14.04,77.74l358.63 0zm121.89 35.87c0,19.06 -4.77,32.85 -14.3,40.87 -9.53,8.03 -20.31,12.04 -32.6,12.04l-433.62 0c0,36.87 3.76,69.72 11.04,99.32 7.27,29.34 19.56,54.42 36.86,75.49 17.05,21.06 39.38,37.36 66.71,48.65 27.59,11.28 60.94,16.81 100.82,16.81 31.35,0 59.18,-2.51 83.77,-7.78 24.32,-5.02 45.64,-10.79 63.44,-17.31 17.81,-6.26 32.61,-12.04 44.14,-17.05 11.54,-5.27 20.07,-7.77 26.09,-7.77 3.26,0 6.52,0.75 9.02,2.5 2.77,1.76 4.77,4.26 6.28,7.78 1.5,3.51 2.76,8.28 3.51,14.29 0.5,6.02 1,13.54 1,22.32 0,6.53 -0.25,12.04 -0.75,16.56 -0.51,4.76 -1,8.77 -1.76,12.53 -0.75,3.77 -2,7.03 -3.76,10.04 -1.75,2.76 -4.01,5.76 -6.52,8.27 -2.76,2.76 -10.78,7.27 -24.08,13.29 -13.04,6.02 -30.34,12.04 -51.41,18.06 -21.07,5.77 -45.39,11.04 -72.98,15.8 -27.59,4.52 -57.18,7.02 -88.53,7.02 -54.42,0 -102.07,-7.77 -142.95,-22.82 -40.88,-15.29 -75.24,-37.87 -103.33,-67.71 -27.84,-29.84 -48.9,-67.21 -63.2,-112.36 -14.04,-45.14 -21.32,-97.56 -21.32,-157.24 0,-56.68 7.53,-107.84 22.07,-153.24 14.8,-45.14 35.87,-83.77 63.71,-115.36 27.58,-31.6 60.94,-55.68 100.31,-72.73 39.13,-16.81 83.01,-25.33 131.42,-25.33 51.91,0 96.05,8.27 132.67,25.08 36.36,16.55 66.46,39.12 90.03,67.21 23.58,28.09 40.63,61.19 51.67,99.06 11.03,38.12 16.55,78.5 16.55,121.64l0 22.07zm-910.13 -105.84c-32.86,-40.62 -64.71,-71.48 -95.3,-92.79 -30.6,-21.32 -62.45,-32.11 -95.81,-32.11 -30.84,0 -57.18,7.53 -78.5,22.08 -21.56,14.79 -39.12,34.1 -52.66,58.18 -13.54,23.82 -23.33,51.16 -29.34,81.51 -6.28,30.35 -9.28,61.19 -9.28,92.54 0,33.36 2.51,65.96 7.77,97.81 5.02,31.6 14.05,59.94 26.83,84.77 12.8,24.82 29.6,44.64 50.66,59.44 21.07,15.04 47.66,22.57 79.26,22.57 16.3,0 31.85,-2.26 46.89,-6.78 14.8,-4.26 30.1,-11.78 45.9,-22.06 15.55,-10.29 32.1,-23.58 49.16,-39.88 17.05,-16.55 35.36,-36.61 54.42,-60.69l0 -264.59zm121.88 465.22c0,3.76 -0.75,7.27 -2.51,10.29 -1.75,2.75 -4.76,5.26 -8.77,7.02 -4.27,1.5 -9.78,3 -16.56,4.01 -7.02,1 -15.29,1.5 -25.07,1.5 -10.29,0 -18.82,-0.5 -25.59,-1.5 -7.02,-1.01 -12.54,-2.51 -17.05,-4.01 -4.26,-1.76 -7.53,-4.27 -9.53,-7.02 -2.01,-3.02 -3.01,-6.53 -3.01,-10.29l0 -87.53c-34.61,37.87 -70.72,67.22 -108.34,88.28 -37.37,21.07 -78.5,31.6 -122.89,31.6 -48.65,0 -90.03,-9.53 -124.39,-28.33 -34.11,-18.82 -61.95,-44.4 -83.26,-76.5 -21.33,-32.1 -36.87,-69.72 -46.66,-113.11 -9.78,-43.38 -14.79,-89.02 -14.79,-136.93 0,-56.93 6.27,-108.34 18.31,-153.98 12.28,-45.9 30.59,-85.02 54.42,-117.13 24.08,-32.35 53.92,-57.18 89.28,-74.73 35.61,-17.31 76.49,-26.08 123.14,-26.08 38.62,0 73.98,8.52 106.09,25.33 32.1,17.05 63.95,41.88 95.3,74.73l0 -384.46c0,-3.26 0.75,-6.52 2.51,-9.79 1.75,-3.25 5.01,-5.76 10.03,-7.27 4.76,-1.75 11.03,-3.26 18.55,-4.51 7.53,-1.26 17.31,-1.76 29.1,-1.76 12.29,0 22.32,0.5 30.09,1.76 7.78,1.25 14.05,2.76 18.31,4.51 4.51,1.51 7.78,4.02 10.03,7.27 2.26,3.27 3.26,6.53 3.26,9.79l0 978.84zm-1834.55 -244.77c0,25.58 4.27,48.9 12.79,69.72 8.53,21.06 21.32,39.37 37.88,54.92 16.55,15.3 37.36,27.34 62.44,35.87 25.08,8.52 53.92,13.04 86.78,13.04 20.06,0 39.62,-2.26 58.68,-6.27 19.06,-4.27 37.37,-9.79 54.67,-17.06 17.56,-7.02 34.11,-15.55 49.66,-25.58 15.8,-10.03 30.09,-20.81 43.39,-32.1 -25.58,-22.07 -50.91,-44.89 -75.99,-68.72 -25.33,-23.57 -49.66,-47.65 -73.23,-71.47 -23.58,-24.08 -46.15,-47.9 -67.97,-71.73 -21.82,-23.83 -41.63,-46.9 -59.94,-69.47 -24.33,15.8 -44.89,31.35 -61.19,46.65 -16.55,15.55 -29.59,30.85 -39.63,46.39 -10.03,15.31 -17.3,30.85 -21.82,46.66 -4.26,15.54 -6.52,32.09 -6.52,49.15zm85.27 -511.37c0,13.29 1.76,26.83 5.52,40.38 3.51,13.79 9.28,28.09 16.81,43.13 7.52,14.8 16.8,30.85 27.83,48.16 11.04,17.05 24.33,36.11 39.37,57.18 35.87,-20.06 65.71,-38.63 90.04,-55.43 24.33,-17.05 43.64,-33.1 58.44,-48.9 14.54,-15.55 25.33,-31.35 31.85,-46.9 6.77,-15.8 10.03,-32.35 10.03,-50.16 0,-14.05 -2.51,-27.83 -7.77,-40.63 -5.02,-13.04 -13.3,-24.57 -24.58,-34.6 -11.29,-10.04 -25.58,-18.06 -42.64,-23.83 -17.05,-6.02 -37.62,-8.78 -61.69,-8.78 -26.09,0 -47.9,3.26 -65.71,9.78 -18.06,6.77 -32.61,15.55 -44.14,26.59 -11.54,11.03 -20.07,23.82 -25.33,38.37 -5.52,14.8 -8.03,30.09 -8.03,45.64zm-216.93 523.91c0,-26.84 3.76,-52.42 11.03,-76.75 7.53,-24.32 19.06,-47.89 34.61,-70.47 15.8,-22.82 36.12,-44.89 61.45,-66.21 25.07,-21.31 55.67,-42.88 91.29,-64.2 -19.56,-26.58 -36.37,-50.66 -50.16,-72.23 -14.05,-21.57 -25.59,-41.63 -34.61,-60.19 -9.03,-18.56 -15.55,-36.37 -19.56,-53.17 -3.76,-17.05 -5.77,-33.86 -5.77,-51.16 0,-30.34 5.01,-59.44 15.3,-87.03 10.53,-27.58 26.83,-52.16 49.65,-73.48 22.82,-21.31 52.17,-38.12 87.78,-50.65 35.87,-12.55 79.25,-18.82 130.16,-18.82 43.14,0 80.5,4.77 112.1,14.05 31.6,9.28 57.69,22.57 78.5,39.62 20.82,17.06 36.62,37.88 47.15,62.2 10.54,24.08 15.8,51.16 15.8,81.01 0,29.09 -4.76,55.42 -14.04,79.5 -9.28,23.82 -24.33,47.15 -44.9,69.72 -20.56,22.57 -46.89,44.89 -78.99,67.21 -32.1,22.32 -70.72,45.65 -116.37,70.22 16.55,20.07 34.86,41.13 54.42,62.7 19.56,21.82 39.88,43.89 61.19,65.96 21.32,22.07 43.14,43.64 65.46,64.95 22.32,21.32 44.14,41.64 65.71,61.45 9.78,-13.29 18.81,-28.34 26.58,-45.39 7.78,-16.81 14.55,-34.61 20.57,-53.68 5.77,-18.8 10.28,-37.86 13.29,-57.42 2.76,-19.82 4.26,-39.63 4.26,-59.69l0 -26.34c0,-5.01 1.01,-9.03 2.51,-12.29 1.76,-3.01 4.52,-5.76 8.53,-8.02 4.01,-2.26 9.78,-3.76 17.3,-4.77 7.53,-1 17.56,-1.5 29.85,-1.5 10.78,0 19.81,0.25 27.34,0.75 7.77,0.51 14.04,1.76 18.8,3.26 5.02,1.76 8.53,4.52 10.79,8.28 2.01,3.51 3.26,8.53 3.26,15.04l0 18.31c0,27.34 -2.26,54.42 -7.03,80.76 -4.76,26.58 -11.03,52.41 -19.06,77.49 -8.02,25.33 -18.05,49.41 -30.09,72.48 -12.04,23.08 -25.33,44.39 -40.13,63.96 22.07,17.55 41.38,32.35 57.69,43.88 16.3,11.79 30.34,21.32 41.88,28.85 11.53,7.27 21.06,12.53 28.59,15.29 7.77,3.01 13.79,4.52 18.81,4.52 5.01,0 9.53,-0.25 14.04,-0.76 4.27,-0.5 7.78,0.26 10.54,2.26 2.75,2.01 4.76,5.77 6.26,11.79 1.51,5.77 2.26,14.79 2.26,27.08 0,12.29 -0.25,22.08 -0.75,29.35 -0.5,7.27 -1.25,12.79 -2.51,16.55 -1.25,3.76 -3.51,6.77 -6.27,9.28 -3.01,2.26 -8.28,4.52 -16.3,6.52 -7.78,2.01 -18.05,3.01 -30.85,3.01 -9.78,0 -20.56,-1.76 -32.35,-5.27 -11.78,-3.26 -25.33,-9.28 -41.13,-17.8 -15.55,-8.78 -33.85,-20.32 -54.67,-35.11 -20.82,-14.55 -45.15,-33.11 -72.98,-55.68 -20.82,16.55 -42.39,32.1 -65.21,46.15 -22.82,14.29 -46.9,26.33 -72.73,36.36 -25.58,10.03 -52.66,18.06 -80.75,23.57 -28.09,5.77 -58.69,8.53 -91.54,8.53 -30.85,0 -60.19,-2.76 -87.78,-8.02 -27.59,-5.52 -53.17,-13.29 -76.75,-23.33 -23.56,-10.03 -44.64,-22.57 -63.19,-37.87 -18.56,-15.04 -34.36,-32.35 -47.4,-51.66 -13.05,-19.31 -23.08,-41.13 -30.1,-64.96 -7.02,-24.07 -10.78,-50.15 -10.78,-77.99zm-1594.76 -173.17c1.51,-63.7 -12.54,-113.86 -42.38,-149.97 -29.59,-36.37 -73.48,-54.43 -131.66,-54.43 -30.1,0 -56.18,5.77 -78.75,17.06 -22.58,11.04 -41.39,26.08 -56.43,44.64 -15.3,18.56 -27.09,40.38 -35.36,64.95 -8.28,24.83 -13.05,50.67 -14.05,77.75l358.63 0zm121.89 35.87c0,19.06 -4.77,32.85 -14.3,40.87 -9.53,8.03 -20.31,12.04 -32.6,12.04l-433.62 0c0,36.87 3.76,69.72 11.04,99.32 7.27,29.34 19.56,54.42 36.86,75.49 17.06,21.06 39.38,37.36 66.71,48.65 27.59,11.28 60.94,16.8 100.82,16.8 31.35,0 59.19,-2.5 83.77,-7.77 24.32,-5.02 45.64,-10.79 63.45,-17.31 17.8,-6.27 32.6,-12.04 44.14,-17.05 11.54,-5.27 20.06,-7.77 26.08,-7.77 3.26,0 6.52,0.74 9.03,2.5 2.76,1.75 4.76,4.26 6.27,7.77 1.5,3.52 2.76,8.28 3.51,14.3 0.5,6.02 1,13.54 1,22.32 0,6.52 -0.25,12.04 -0.75,16.55 -0.5,4.77 -1,8.78 -1.76,12.54 -0.75,3.77 -2,7.02 -3.76,10.04 -1.75,2.75 -4.01,5.76 -6.52,8.27 -2.76,2.76 -10.78,7.27 -24.07,13.29 -13.04,6.02 -30.35,12.04 -51.42,18.06 -21.06,5.77 -45.39,11.04 -72.98,15.8 -27.59,4.51 -57.18,7.02 -88.53,7.02 -54.42,0 -102.07,-7.77 -142.95,-22.82 -40.88,-15.3 -75.24,-37.87 -103.33,-67.71 -27.83,-29.85 -48.9,-67.22 -63.2,-112.36 -14.04,-45.14 -21.31,-97.56 -21.31,-157.25 0,-56.68 7.52,-107.84 22.07,-153.23 14.79,-45.15 35.86,-83.77 63.7,-115.37 27.58,-31.6 60.94,-55.67 100.31,-72.73 39.13,-16.8 83.02,-25.33 131.42,-25.33 51.92,0 96.05,8.28 132.67,25.08 36.36,16.56 66.46,39.13 90.04,67.22 23.57,28.09 40.62,61.19 51.66,99.06 11.03,38.12 16.55,78.5 16.55,121.64l0 22.07zm-2180.13 375.24c0,3.76 -1,7.27 -2.75,9.78 -2.01,2.75 -5.27,5.01 -9.54,7.02 -4.51,2.01 -10.53,3.51 -18.55,4.51 -7.78,1.01 -17.56,1.51 -29.35,1.51 -12.29,0 -22.32,-0.5 -30.09,-1.51 -7.78,-1 -14.05,-2.5 -18.81,-4.51 -4.52,-2.01 -7.77,-4.27 -9.78,-7.02 -2.01,-2.51 -3.01,-6.02 -3.01,-9.78l0 -402.03c0,-27.83 -2.51,-53.41 -7.27,-76.24 -5.02,-23.07 -12.79,-42.88 -23.58,-59.68 -10.78,-16.56 -24.57,-29.35 -41.13,-38.13 -16.55,-8.77 -36.36,-13.29 -58.68,-13.29 -28.09,0 -56.18,10.79 -84.27,32.35 -28.09,21.57 -59.19,53.17 -92.79,94.8l0 462.22c0,3.76 -1.01,7.27 -3.01,9.78 -2.01,2.75 -5.27,5.01 -10.03,7.02 -4.52,2.01 -10.79,3.51 -18.56,4.51 -8.03,1.01 -17.81,1.51 -29.6,1.51 -11.28,0 -20.81,-0.5 -28.84,-1.51 -8.28,-1 -14.55,-2.5 -19.31,-4.51 -4.51,-2.01 -7.77,-4.27 -9.53,-7.02 -1.51,-2.51 -2.51,-6.02 -2.51,-9.78l0 -402.03c0,-27.83 -2.76,-53.41 -8.02,-76.24 -5.52,-23.07 -13.55,-42.88 -24.33,-59.68 -10.78,-16.56 -24.33,-29.35 -40.63,-38.13 -16.55,-8.77 -35.86,-13.29 -58.43,-13.29 -28.09,0 -56.18,10.79 -84.52,32.35 -28.34,21.57 -59.44,53.17 -92.54,94.8l0 462.22c0,3.76 -1,7.27 -3.01,9.78 -2.01,2.75 -5.27,5.01 -9.53,7.02 -4.52,2.01 -10.53,3.51 -18.31,4.51 -8.03,1.01 -18.06,1.51 -30.35,1.51 -11.53,0 -21.31,-0.5 -29.34,-1.51 -7.77,-1 -14.05,-2.5 -18.56,-4.51 -4.76,-2.01 -8.02,-4.27 -9.53,-7.02 -1.76,-2.51 -2.76,-6.02 -2.76,-9.78l0 -661.35c0,-4.01 0.76,-7.27 2.26,-10.02 1.51,-2.51 4.51,-5.02 8.78,-7.28 4.51,-2.26 10.03,-3.51 17.05,-4.27 6.77,-0.74 15.8,-1.25 27.09,-1.25 10.78,0 19.81,0.51 26.83,1.25 7.03,0.76 12.54,2.01 16.56,4.27 3.76,2.26 6.77,4.77 8.53,7.28 1.5,2.75 2.5,6.01 2.5,10.02l0 87.53c37.12,-41.63 73.23,-72.22 108.34,-91.54 35.11,-19.31 70.48,-29.09 106.09,-29.09 27.59,0 52.16,3.26 73.98,9.53 21.82,6.52 40.88,15.3 57.69,26.84 16.54,11.53 30.84,25.33 42.63,41.13 11.53,16.05 21.57,33.85 29.34,53.42 22.07,-24.08 42.89,-44.4 62.7,-60.95 19.81,-16.8 39.12,-30.35 57.43,-40.63 18.31,-10.28 36.12,-17.55 53.67,-22.32 17.31,-4.76 34.86,-7.02 52.42,-7.02 42.63,0 78.5,7.52 107.34,22.57 28.84,14.8 52.16,34.86 70.22,59.69 17.8,25.08 30.6,54.42 38.12,87.78 7.52,33.61 11.28,68.97 11.28,106.34l0 418.07zm680.7 -339.03c0,-35.61 -3.51,-69.47 -10.03,-101.32 -6.52,-31.85 -17.56,-59.69 -32.6,-83.76 -15.3,-24.08 -35.87,-42.89 -61.7,-56.93 -26.08,-14.05 -58.43,-21.07 -97.05,-21.07 -35.87,0 -66.46,6.52 -92.3,19.31 -25.58,12.54 -46.89,30.6 -63.45,53.92 -16.8,23.32 -29.09,50.91 -37.11,82.76 -8.03,31.85 -12.04,66.46 -12.04,104.33 0,36.12 3.25,70.22 9.78,102.08 6.52,31.85 17.55,59.69 33.1,83.26 15.3,23.82 36.12,42.63 61.95,56.68 26.08,14.04 58.43,20.81 97.05,20.81 35.37,0 65.97,-6.27 91.79,-19.06 26.09,-12.79 47.4,-30.59 63.96,-53.67 16.8,-22.82 29.09,-50.4 36.86,-82.26 7.78,-31.85 11.79,-66.71 11.79,-105.08zm127.65 -8.02c0,53.92 -7.02,103.57 -21.31,148.72 -14.05,45.39 -35.36,84.51 -63.45,117.37 -28.09,32.85 -63.45,58.43 -105.84,76.74 -42.38,18.31 -91.54,27.59 -147.21,27.59 -54.42,0 -101.83,-8.28 -142.2,-24.33 -40.38,-16.05 -74.24,-39.62 -101.07,-70.47 -26.84,-30.85 -46.9,-68.47 -60.19,-112.61 -13.29,-43.89 -19.81,-94.04 -19.81,-149.72 0,-53.92 7.02,-103.58 20.81,-148.72 14.04,-45.39 35.11,-84.52 63.2,-117.38 28.09,-32.85 63.45,-58.18 105.58,-76.24 42.14,-18.3 91.29,-27.33 147.47,-27.33 54.42,0 101.82,8.02 142.2,24.33 40.38,16.05 74.24,39.62 101.07,70.47 27.08,30.85 47.15,68.47 60.69,112.36 13.54,44.13 20.06,93.79 20.06,149.22zm1670.17 -550.93c0,28.59 -5.26,47.9 -16.05,58.18 -10.78,10.28 -30.6,15.3 -59.44,15.3 -28.59,0 -47.9,-5.02 -58.43,-15.05 -10.53,-10.03 -15.8,-28.84 -15.8,-56.93 0,-28.34 5.27,-47.65 16.05,-57.94 10.78,-10.27 30.6,-15.54 59.44,-15.54 28.58,0 47.9,5.01 58.43,15.05 10.54,10.02 15.8,29.09 15.8,56.93zm-13.79 884.79c0,3.76 -1,7.27 -3.01,9.78 -2.01,2.76 -5.27,5.02 -9.53,7.02 -4.52,2.01 -10.53,3.51 -18.31,4.52 -8.03,1 -18.06,1.5 -30.35,1.5 -11.53,0 -21.31,-0.5 -29.34,-1.5 -7.77,-1.01 -14.05,-2.51 -18.56,-4.52 -4.76,-2 -8.02,-4.26 -9.53,-7.02 -1.76,-2.51 -2.76,-6.02 -2.76,-9.78l0 -661.34c0,-3.51 1,-6.52 2.76,-9.53 1.51,-3.01 4.77,-5.52 9.53,-7.27 4.51,-2.01 10.79,-3.51 18.56,-4.51 8.03,-1.01 17.81,-1.51 29.34,-1.51 12.29,0 22.32,0.5 30.35,1.51 7.78,1 13.79,2.5 18.31,4.51 4.26,1.75 7.52,4.26 9.53,7.27 2.01,3.01 3.01,6.02 3.01,9.53l0 661.34zm-1302.57 22.49c-5.16,0.2 -9.07,-0.53 -11.6,-2.54 -2.65,-1.64 -5.04,-4.61 -6.62,-8.27l-295.31 -684.6c-3.99,-9.25 -5.83,-22.99 6.83,-23.95l102.05 -0.22c4.6,-0.21 8.61,0.76 11.7,2.78 3.09,2.02 5.26,4.5 6.74,7.91l214.87 497.04 214.88 -497.04c1.48,-3.41 3.65,-5.89 6.74,-7.91 3.08,-2.02 7.1,-2.99 11.7,-2.78 20.64,0.37 98.92,-1.82 104.37,2.07 9.5,2.45 10.49,16.89 7.09,24.68l-297.9 682.02c-1.59,3.65 -3.96,6.63 -6.61,8.27 -6.01,4.77 -58.24,2.37 -68.93,2.54zm1449.17 -121.83c-1.06,8.69 -1.67,15.85 -1.93,22.24 -0.24,6.14 0.13,11.51 0.67,15.59 0.75,4.35 1.82,8.19 3.23,11.26 1.39,3.32 4.64,8.18 10.28,14.31 5.4,6.14 15.17,14.07 28.89,23.27 13.97,9.2 29.85,17.39 47.65,24.55 17.76,7.41 37.5,13.29 58.97,17.64 21.42,4.6 43.9,6.9 67.42,6.9 48.33,0 92.27,-8.18 131.52,-24.03 13.1,-5.34 25.59,-11.46 37.5,-18.38 11.82,-6.06 23.25,-12.82 34.28,-20.29 95.02,-63.92 136.24,-195.13 70.35,-278.25 -25.24,-31.83 -65.16,-55.45 -119.76,-70.85 -54.65,-15.06 -89.73,-24.98 -105.36,-28.75 -59.83,-17.45 -96.45,-28.75 -109.48,-34.22 -110.89,-46.62 3.25,-154.63 112.68,-154.63 29.15,0 53.71,4.09 73.91,12.53 20.22,8.18 37.26,17.38 50.88,27.35 13.88,9.97 25.07,18.92 33.76,27.36 8.73,8.18 16.92,12.28 24.34,12.28 6.64,0 12.48,-3.84 18.04,-11.76 5.28,-7.68 9.22,-21.23 11.58,-40.66 1.08,-8.95 1.75,-16.62 1.96,-22.5 0.23,-6.13 -0.17,-11.25 -1.12,-16.1 -0.69,-4.87 -2.24,-8.95 -4.14,-12.28 -1.61,-3.58 -5.11,-8.43 -10.54,-14.32 -5.13,-6.13 -13.98,-13.29 -26.25,-21.73 -12.02,-8.44 -26.43,-16.11 -42.53,-22.5 -16.1,-6.39 -34.11,-11.76 -53.85,-15.6 -19.7,-4.09 -40.42,-6.13 -61.89,-6.13 -37.53,0 -73.33,5.27 -107.71,15.82 -16.77,4.64 -32.3,10.53 -46.58,17.66 -12.03,6.11 -23.21,12.58 -33.51,19.42 -125.1,81.72 -145.42,209.5 -35.98,294.09 23.51,17.8 51.59,31.83 84.31,41.41 32.34,9.93 69.47,19.85 110.93,30.81 64.06,16.42 104.72,31.14 121.96,44.15 64.66,47.35 1.04,116.7 -80.44,146.86 -25.01,9.26 -51.81,16.11 -81.72,16.11 -28.38,0 -52.88,-4.6 -73.27,-13.55 -20.39,-8.95 -37.85,-18.92 -52.15,-29.66 -14.55,-10.74 -26.66,-20.45 -36.35,-29.15 -9.69,-8.69 -17.34,-13.04 -23.48,-13.04 -3.32,0 -6.51,1.03 -9.29,2.82 -2.8,2.04 -5.25,5.37 -7.63,10.22 -2.38,4.86 -4.11,10.74 -5.75,17.9 -1.66,7.41 -3.19,15.85 -4.4,25.83zm-1986.47 -761.58c-33.3,38.94 -61.05,65.24 -83.81,79.24 -22.76,14 -48.42,20.83 -77.26,20.83 -28.58,0 -42.06,-6.83 -40.91,-20.49 1.81,-21.37 99.91,-150.55 112.11,-167.18 7.17,-9.79 153.94,-19.52 151.54,8.99 -1.15,13.66 -29.25,40.69 -61.67,78.61z"/>
  <path class="fil0" d="M24731.4 4711.72c-34.97,36.18 -75.98,211.05 -89.24,389.53 -44.62,437.76 -231.55,862.27 -598.16,1348.27 -371.44,487.21 -505.3,558.36 -692.23,361.79 -102.51,-107.33 -102.51,-129.04 -75.97,-727.2 13.26,-340.08 39.79,-719.96 62.71,-840.56 44.62,-272.55 -9.65,-424.5 -147.13,-424.5 -151.95,0 -206.22,103.72 -250.84,434.15 -34.98,272.55 -88.04,867.09 -151.96,1080.55 -30.15,102.51 94.07,571.63 206.22,745.29 124.22,206.22 347.32,303.9 571.63,241.19 236.37,-61.5 375.06,-182.1 593.34,-504.09 401.59,-602.99 482.39,-625.9 482.39,-115.78 0,548.72 205.01,1285.56 379.88,1353.1 236.37,89.24 348.52,-31.36 209.84,-227.93 -49.45,-67.53 -97.69,-214.66 -115.78,-325.61 -138.68,-1072.11 -174.86,-1988.64 -85.62,-2452.94 41,-209.84 41,-303.9 9.65,-348.53 -67.54,-79.59 -241.2,-71.15 -308.73,13.27zm814.03 -815.23c-94.07,124.21 -102.51,276.16 -107.34,1620.82 0,1402.54 22.92,1603.94 165.22,1661.82 125.42,49.45 206.22,-94.06 232.75,-437.76 36.18,-384.71 27.74,-384.71 589.72,-219.49 662.08,192.95 809.21,227.93 1131.2,285.81 365.41,62.71 656.05,44.62 656.05,-39.79 0,-94.07 -94.07,-142.31 -401.59,-218.28 -381.09,-95.28 -500.48,-170.05 -867.09,-272.55 -147.13,-41.01 -370.23,-116.98 -504.1,-161.6 -272.55,-102.51 -321.99,-218.28 -89.24,-218.28 191.75,0 593.34,-120.6 776.65,-232.75 437.76,-262.91 522.18,-839.36 170.04,-1148.09 -343.7,-299.08 -736.85,-401.58 -1187.88,-302.69 -156.78,30.14 -166.43,26.53 -192.96,-107.34 -13.26,-80.8 -49.44,-170.04 -75.97,-206.22 -62.71,-71.15 -237.58,-75.97 -295.46,-3.61zm1430.27 883.97c183.31,214.66 191.75,303.9 44.62,455.86 -66.32,71.15 -178.48,160.39 -246.01,196.57 -147.13,75.98 -710.32,84.42 -785.09,8.44 -31.35,-31.35 -54.27,-173.66 -54.27,-335.26 0,-272.55 4.83,-285.81 147.13,-370.23 107.33,-67.53 223.11,-89.24 464.3,-89.24 300.29,0 326.82,8.44 429.32,133.86z"/>
  <path class="fil0" d="M23973.8 12335.04c-89.24,80.8 -267.72,285.81 -401.58,460.68 -129.04,170.04 -267.73,317.17 -308.73,325.61 -44.62,9.65 -92.86,-53.06 -147.13,-178.48 -97.68,-254.46 -241.19,-406.42 -317.17,-343.71 -44.62,34.98 -53.06,186.93 -31.35,647.61 19.29,490.83 9.64,665.69 -56.69,951.51 -85.62,365.41 -72.35,477.56 44.63,522.18 120.59,49.45 272.54,-147.13 423.29,-531.83 183.31,-469.12 326.82,-745.29 549.92,-1080.55 264.11,-397.97 338.88,-469.12 500.48,-469.12 125.42,0 147.13,18.09 191.75,174.87 67.53,213.45 71.15,1263.85 8.44,1486.96 -84.42,308.72 85.62,639.16 246.02,477.56 102.5,-97.68 183.3,-736.85 183.3,-1424.25 0,-540.27 -13.26,-625.9 -103.71,-794.73 -150.75,-287.02 -249.63,-366.62 -446.21,-366.62 -129.04,0 -209.84,34.98 -335.26,142.31zm2116.48 -976.84c-155.57,188.13 -687.41,2046.53 -736.85,2573.54 -13.27,160.39 -53.06,419.68 -89.24,580.07 -267.73,1197.53 -294.26,1366.36 -232.75,1549.67 22.91,67.53 67.53,103.71 133.86,103.71 112.15,0 174.86,-151.95 303.9,-759.76 54.27,-264.1 75.98,-295.46 237.58,-388.32 223.1,-125.42 378.67,-174.86 915.33,-264.11l419.67 -71.15 80.8 102.51c196.58,259.28 259.29,308.73 365.41,308.73 148.34,0 156.78,-130.25 27.74,-313.55 -161.6,-227.93 -523.39,-946.69 -692.23,-1384.46 -90.44,-227.92 -224.31,-540.27 -300.28,-682.57 -129.04,-264.11 -129.04,-272.55 -79.6,-554.75 57.89,-307.52 34.98,-695.84 -49.44,-799.56 -67.53,-79.59 -236.37,-79.59 -303.9,0zm236.37 1800.51c94.06,191.75 196.57,442.59 227.92,558.37 31.36,115.77 98.89,267.72 151.96,343.7 147.12,205.01 125.42,299.08 -94.07,356.96 -218.28,59.1 -816.44,44.63 -883.97,-21.7 -39.8,-39.8 4.82,-371.44 156.77,-1111.91 120.6,-586.1 200.19,-607.8 441.39,-125.42z"/>
  <path class="fil0" d="M22996.91 7703.86c-48.24,66.33 -92.86,142.31 -92.86,170.05 0,26.53 -39.79,124.21 -89.24,218.28 -107.33,196.57 -110.95,295.46 -21.71,416.05 53.07,71.16 62.71,320.79 66.33,1477.32 0,773.02 18.09,1443.54 44.62,1506.25 21.71,61.5 92.86,147.13 159.19,186.93 101.3,71.15 149.54,71.15 452.24,22.91 303.9,-49.45 393.15,-89.24 777.85,-340.08 330.43,-218.28 459.47,-335.26 553.54,-490.83 232.75,-397.97 227.93,-857.45 -4.83,-1040.75 -57.88,-44.63 -258.07,-143.51 -441.38,-214.67 -188.13,-71.15 -340.08,-151.95 -340.08,-183.3 0,-53.07 227.93,-223.11 584.89,-428.12 389.53,-219.49 549.92,-541.48 384.71,-764.59 -84.42,-110.95 -508.92,-205.01 -1098.64,-241.19l-513.74 -31.36 -89.25 -178.48c-115.77,-218.28 -208.63,-241.19 -331.64,-84.42zm1600.32 754.94c84.42,102.51 21.71,186.92 -254.46,335.26 -143.51,71.15 -389.52,205.01 -549.92,289.43 -419.67,232.75 -441.38,223.11 -441.38,-173.66 0,-219.48 16.88,-348.52 57.88,-371.44 205.02,-133.86 1098.64,-191.75 1192.71,-79.59l-4.83 0zm-933.42 1335.01c527.01,107.33 794.74,214.66 946.69,371.43 133.86,137.49 138.68,151.96 75.97,267.73 -160.39,312.35 -964.77,951.51 -1197.52,951.51 -26.53,0 -89.24,-67.54 -137.48,-148.34 -80.8,-124.21 -94.07,-223.1 -94.07,-771.82 0,-424.5 16.89,-643.98 53.06,-678.96 31.36,-31.35 54.27,-54.26 57.89,-54.26 0,0 130.25,27.73 290.64,62.71l4.82 0zm2220.2 -1221.65c-231.55,213.46 -325.62,437.77 -522.19,1245.77 -223.1,915.33 -138.69,1433.89 241.19,1465.25 143.51,13.26 174.87,-9.65 348.53,-223.11 102.51,-130.24 218.28,-303.9 259.28,-384.7 129.04,-272.55 173.66,-218.28 385.91,505.3 97.69,330.44 150.75,432.94 293.05,571.63 133.87,124.21 214.67,165.22 330.44,165.22 192.95,0 196.57,-62.71 22.91,-209.84 -191.75,-161.6 -246.02,-282.2 -356.97,-817.65 -89.24,-411.23 -98.88,-553.54 -75.97,-1148.08l26.53 -683.78 -129.04 -262.91c-230.34,-464.29 -483.59,-536.65 -823.67,-223.1zm513.74 561.98c0,419.68 -258.08,1205.97 -477.57,1447.16 -191.74,209.84 -254.46,219.49 -325.61,36.18 -49.44,-107.33 -49.44,-196.57 -4.82,-432.94 133.86,-759.76 442.59,-1349.48 705.49,-1349.48 98.89,0 102.51,18.09 102.51,299.08z"/>
  <path class="fil0" d="M18797.87 12554.08l0 -1688 -1458.37 0 0 1718.18 1458.37 -30.18zm633.63 595.08l-643.7 0 0 -132.42c-258.14,35.2 -517.96,70.4 -776.11,102.25 -320.17,40.23 -578.31,60.34 -771.08,60.34 -357.05,0 -534.74,-177.67 -534.74,-531.37l0 -1743.33c0,-367.1 184.4,-549.82 554.85,-549.82l1537.15 0 0 -1438.24 -1404.73 0 0 814.67 -633.63 0 0 -806.29c0,-368.77 182.72,-554.84 549.82,-554.84l1572.35 0c365.42,0 549.82,186.07 549.82,554.84l0 4224.21z"/>
  <polygon class="fil0" points="15621.33,13149.16 14977.64,13149.16 14977.64,5463.45 15621.33,5463.45 "/>
  <path class="fil0" d="M13237.66 12024.39l0 -3069.26 -1438.24 38.55 0 3580.52 903.51 0c357.05,0 534.73,-182.71 534.73,-549.81zm653.74 98.9c0,293.34 -97.21,538.08 -289.99,734.2 -192.77,194.45 -435.83,291.67 -725.83,291.67l-1076.16 0 0 1812.06 -653.75 0 0 -6591.11 653.75 0 0 134.1c258.15,-33.53 517.96,-67.05 776.11,-98.9 326.87,-41.91 585.03,-63.7 771.09,-63.7 363.75,0 544.78,177.69 544.78,534.73l0 3246.95z"/>
  <path class="fil0" d="M10086.27 13149.16l-653.75 0 0 -4194.03 -1424.84 38.55 0 4155.48 -647.04 0 0 -4194.03 -1424.83 38.55 0 4155.48 -653.75 0 0 -4779.05 653.75 0 0 134.1c254.79,-33.53 511.26,-68.73 766.06,-103.93 311.78,-38.56 568.26,-58.67 771.08,-58.67 199.48,0 346.99,60.35 442.54,181.04 274.9,-35.2 548.14,-73.76 819.7,-112.31 357.04,-46.94 626.92,-68.73 809.64,-68.73 360.4,0 541.44,177.69 541.44,534.73l0 4272.82z"/>
  <path class="fil0" d="M3578.97 12554.08l0 -1688 -1458.37 0 0 1718.18 1458.37 -30.18zm633.63 595.08l-643.7 0 0 -132.42c-258.14,35.2 -517.97,70.4 -776.11,102.25 -320.17,40.23 -578.31,60.34 -771.08,60.34 -357.05,0 -534.74,-177.67 -534.74,-531.37l0 -1743.33c0,-367.1 184.39,-549.82 554.85,-549.82l1537.15 0 0 -1438.24 -1404.73 0 0 814.67 -633.63 0 0 -806.29c0,-368.77 182.72,-554.84 549.82,-554.84l1572.35 0c365.42,0 549.82,186.07 549.82,554.84l0 4224.21z"/>
  <polygon class="fil0" points="21259.83,3714.28 21259.83,15600.93 21109.83,15600.93 21109.83,3714.28 "/>
 </g>
</svg>
