<svg width="365" height="96" viewBox="0 0 365 96" fill="none" xmlns="http://www.w3.org/2000/svg">
<path d="M192.742 16.0002V89.7439H197.167V16.0002H192.742Z" fill="#F23207"/>
<path d="M192.743 89.7458V16.002H197.172" fill="#F23207"/>
<path d="M192.742 16.0002V89.7439H197.167V16.0002H192.742Z" fill="#FF5206"/>
<path d="M192.743 89.7458V16.002H197.172" fill="#FF5206"/>
<path fill-rule="evenodd" clip-rule="evenodd" d="M229.86 42.0563C229.504 42.4238 229.087 44.205 228.952 46.02C228.499 50.475 226.594 54.7988 222.862 59.745C219.082 64.7063 217.717 65.43 215.816 63.4275C214.774 62.3363 214.774 62.115 215.044 56.025C215.179 52.5638 215.449 48.6975 215.681 47.4675C216.135 44.6925 215.584 43.1475 214.185 43.1475C212.64 43.1475 212.085 44.205 211.631 47.5688C211.275 50.3438 210.735 56.3963 210.083 58.5675C209.775 59.61 211.039 64.3875 212.182 66.1538C213.446 68.2538 215.719 69.2475 218.002 68.61C220.41 67.9838 221.82 66.7575 224.044 63.48C228.131 57.3413 228.952 57.1088 228.952 62.3025C228.952 67.89 231.041 75.39 232.819 76.0763C235.226 76.9838 236.366 75.7575 234.956 73.755C234.454 73.0688 233.962 71.5688 233.779 70.44C232.369 59.5275 231.997 50.1975 232.909 45.4688C233.325 43.3313 233.325 42.375 233.006 41.9213C232.312 41.1113 230.546 41.1975 229.86 42.0563ZM238.144 33.7575C237.187 35.0213 237.101 36.57 237.052 50.2575C237.052 64.5338 237.285 66.585 238.736 67.1738C240.011 67.6763 240.836 66.2175 241.106 62.7188C241.474 58.8038 241.387 58.8038 247.11 60.4838C253.849 62.4488 255.349 62.805 258.626 63.3938C262.346 64.0313 265.305 63.8475 265.305 62.9888C265.305 62.0325 264.349 61.5413 261.217 60.765C257.336 59.7938 256.121 59.0325 252.39 57.99C250.894 57.5738 248.621 56.7975 247.26 56.3438C244.485 55.3013 243.982 54.12 246.352 54.12C248.306 54.12 252.394 52.8938 254.257 51.75C258.712 49.0725 259.575 43.2038 255.99 40.0613C252.491 37.0162 248.49 35.9737 243.896 36.9787C242.299 37.2862 242.201 37.2488 241.931 35.8875C241.796 35.0663 241.429 34.155 241.159 33.7875C240.514 33.0712 238.736 33.0225 238.144 33.7575ZM252.705 42.7575C254.572 44.9438 254.659 45.8513 253.159 47.3963C252.484 48.12 251.344 49.0275 250.654 49.3988C249.157 50.1713 243.424 50.2575 242.662 49.485C242.344 49.1663 242.111 47.7188 242.111 46.0725C242.111 43.2975 242.16 43.1625 243.607 42.3038C244.699 41.6175 245.88 41.3962 248.332 41.3962C251.392 41.3962 251.662 41.4825 252.705 42.7575Z" fill="#FF5206"/>
<path fill-rule="evenodd" clip-rule="evenodd" d="M327.728 43.17C326.82 43.9912 325.001 46.08 323.64 47.8613C322.328 49.5938 320.914 51.09 320.498 51.1762C320.044 51.2737 319.553 50.6362 319.001 49.3575C318.008 46.7662 316.545 45.2213 315.773 45.8588C315.319 46.215 315.233 47.76 315.454 52.4512C315.649 57.4462 315.551 59.2275 314.876 62.1375C314.006 65.8575 314.141 66.9975 315.33 67.455C316.556 67.9575 318.105 65.9587 319.639 62.04C321.506 57.2662 322.965 54.4537 325.238 51.0412C327.926 46.9912 328.688 46.2675 330.334 46.2675C331.609 46.2675 331.83 46.4513 332.288 48.0488C332.974 50.22 333.011 60.915 332.374 63.1875C331.515 66.33 333.244 69.6937 334.879 68.0475C335.921 67.0537 336.746 60.5475 336.746 53.55C336.746 48.0487 336.611 47.1788 335.689 45.4613C334.155 42.54 333.146 41.73 331.148 41.73C329.828 41.7187 329.006 42.075 327.728 43.17ZM349.275 33.225C347.693 35.1412 342.278 54.06 341.775 59.4225C341.64 61.0537 341.235 63.6937 340.868 65.3287C338.141 77.52 337.871 79.2375 338.498 81.105C338.73 81.7912 339.184 82.1625 339.859 82.1625C340.999 82.1625 341.64 80.6175 342.953 74.43C343.504 71.7413 343.725 71.4225 345.371 70.4775C347.644 69.2025 349.226 68.6962 354.69 67.7887L358.961 67.065L359.783 68.1075C361.785 70.7475 362.423 71.25 363.503 71.25C365.014 71.25 365.1 69.9225 363.784 68.0587C362.138 65.7375 358.455 58.4212 356.738 53.9662C355.815 51.645 354.454 48.465 353.681 47.0175C352.369 44.3288 352.369 44.2425 352.871 41.37C353.46 38.2388 353.228 34.2862 352.369 33.2325C351.679 32.415 349.961 32.415 349.275 33.225ZM351.679 51.555C352.635 53.5088 353.681 56.0587 354 57.24C354.319 58.4175 355.005 59.9662 355.549 60.7387C357.045 62.8275 356.824 63.7837 354.593 64.3725C352.369 64.9725 346.283 64.8263 345.593 64.1513C345.188 63.7463 345.641 60.3712 347.19 52.8337C348.413 46.8637 349.223 46.6425 351.679 51.555Z" fill="#FF5206"/>
<path fill-rule="evenodd" clip-rule="evenodd" d="M269.662 30.8587C269.171 31.5337 268.717 32.3063 268.717 32.5913C268.717 32.8613 268.312 33.855 267.81 34.815C266.719 36.8175 266.681 37.8225 267.589 39.0488C268.129 39.7725 268.226 42.315 268.264 54.0863C268.264 61.9538 268.447 68.7825 268.717 69.42C268.939 70.0462 269.662 70.9163 270.337 71.3213C271.369 72.045 271.86 72.045 274.942 71.5537C278.036 71.0512 278.944 70.6462 282.862 68.0925C286.226 65.8687 287.539 64.68 288.499 63.0975C290.869 59.0475 290.82 54.3675 288.45 52.5038C287.861 52.05 285.821 51.0412 283.957 50.3175C282.041 49.5937 280.496 48.7725 280.496 48.45C280.496 47.91 282.817 46.1775 286.451 44.0925C290.415 41.8575 292.05 38.58 290.366 36.3075C289.507 35.1788 285.184 34.2188 279.184 33.8513L273.952 33.5325L273.045 31.7137C271.86 29.4975 270.915 29.265 269.662 30.8587ZM285.952 38.5425C286.811 39.585 286.174 40.4438 283.361 41.955C281.899 42.6788 279.397 44.0437 277.762 44.9025C273.491 47.2725 273.27 47.175 273.27 43.1362C273.27 40.9012 273.442 39.5888 273.859 39.3563C275.947 37.995 285.041 37.4025 286.001 38.5463H285.952V38.5425ZM276.45 52.1325C281.816 53.2237 284.539 54.3188 286.087 55.9125C287.449 57.3113 287.497 57.4612 286.86 58.6387C285.229 61.8187 277.039 68.325 274.669 68.325C274.399 68.325 273.761 67.6387 273.27 66.8137C272.449 65.55 272.314 64.5413 272.314 58.9575C272.314 54.6375 272.486 52.4025 272.854 52.0463C273.172 51.7275 273.405 51.495 273.442 51.495C273.442 51.495 274.77 51.7762 276.401 52.1325H276.45V52.1325ZM299.051 39.6975C302.512 36.5062 305.092 37.2412 307.436 41.97L308.749 44.6475L308.479 51.6075C308.246 57.66 308.344 59.1075 309.251 63.2963C310.38 68.7488 310.931 69.975 312.885 71.6212C314.651 73.1175 314.617 73.7588 312.652 73.7588C311.475 73.7588 310.65 73.3425 309.289 72.075C307.841 70.665 307.301 69.6187 306.304 66.255C304.144 58.89 303.69 58.335 302.374 61.11C301.957 61.9312 300.776 63.7012 299.734 65.025C297.967 67.1962 297.645 67.4325 296.186 67.2975C292.32 66.9787 291.461 61.6987 293.73 52.38C295.736 44.1562 296.692 41.8725 299.051 39.6975ZM304.282 45.42C304.282 42.5587 304.245 42.375 303.24 42.375C300.562 42.375 297.42 48.3788 296.059 56.1113C295.605 58.5188 295.605 59.4263 296.107 60.5175C296.831 62.385 297.469 62.2837 299.422 60.15C301.654 57.6937 304.282 49.6912 304.282 45.42Z" fill="#FF5206"/>
<path fill-rule="evenodd" clip-rule="evenodd" d="M173.411 71.0325V54.1237H158.801V71.3363L173.411 71.0325ZM179.76 76.9913H173.31V75.6638C170.722 76.0163 168.12 76.3688 165.536 76.6875C162.33 77.0888 159.742 77.2913 157.811 77.2913C154.234 77.2913 152.456 75.51 152.456 71.97V54.5063C152.456 50.8275 154.305 48.9975 158.014 48.9975H173.411V34.59H159.341V42.75H152.992V34.6725C152.992 30.9787 154.822 29.115 158.501 29.115H174.251C177.911 29.115 179.76 30.9787 179.76 34.6725V76.9913Z" fill="#231F20"/>
<path d="M141.592 0H135.142V76.9913H141.592V0Z" fill="#231F20"/>
<path fill-rule="evenodd" clip-rule="evenodd" d="M117.713 65.7262V34.98L103.305 35.3662V71.235H112.358C115.931 71.2312 117.713 69.4012 117.713 65.7262ZM124.26 66.7162C124.26 69.6562 123.285 72.105 121.354 74.07C119.423 76.0162 116.989 76.9912 114.083 76.9912H103.301V95.145H96.7538V29.1187H103.301V30.4612C105.889 30.1237 108.491 29.79 111.075 29.4712C114.349 29.0512 116.936 28.8337 118.8 28.8337C122.445 28.8337 124.256 30.615 124.256 34.1887V66.7162H124.26Z" fill="#231F20"/>
<path fill-rule="evenodd" clip-rule="evenodd" d="M86.145 76.9912H79.5975V34.98L65.325 35.3662V76.9912H58.845V34.98L44.5725 35.3662V76.9912H38.025V29.1187H44.5725V30.4612C47.1262 30.1237 49.695 29.7712 52.245 29.4187C55.3687 29.0325 57.9375 28.83 59.97 28.83C61.9687 28.83 63.4462 29.4338 64.4025 30.645C67.155 30.2925 69.8925 29.9063 72.615 29.52C76.1925 29.0513 78.8962 28.83 80.7262 28.83C84.3375 28.83 86.1487 30.6113 86.1487 34.185V76.9912H86.145Z" fill="#231F20"/>
<path fill-rule="evenodd" clip-rule="evenodd" d="M20.9587 71.0325V54.1237H6.34873V71.3363L20.9587 71.0325ZM27.3037 76.9913H20.8537V75.6638C18.2662 76.0163 15.6637 76.3688 13.08 76.6875C9.87373 77.0888 7.28622 77.2913 5.35497 77.2913C1.77747 77.2913 -1.52588e-05 75.51 -1.52588e-05 71.97V54.5063C-1.52588e-05 50.8275 1.84874 48.9975 5.55749 48.9975H20.955V34.59H6.88498V42.75H0.536232V34.6725C0.536232 30.9787 2.36623 29.115 6.04498 29.115H21.795C25.455 29.115 27.3037 30.9787 27.3037 34.6725V76.9913V76.9913Z" fill="#231F20"/>
</svg>
