<svg width="152" height="84" viewBox="0 0 152 84" fill="none" xmlns="http://www.w3.org/2000/svg">
<path d="M61.3699 1.08588L61.3699 83.3773H86.5947V1.08588H61.3699Z" fill="#1F4C73"/>
<path d="M61.3699 1.08783H86.5922V83.3793" fill="#1F4C73"/>
<path d="M125.953 1.08475V83.4682H151.885V1.08475H125.953Z" fill="#FF5206"/>
<path d="M125.957 83.4689V1.08804H151.888" fill="#FF5206"/>
<path d="M35.7853 72.6654V43.7519H10.8387V73.1842L35.7853 72.6654ZM46.624 82.8595H35.6118V80.5902C31.1967 81.1933 26.7509 81.7964 22.3358 82.3408C16.8591 83.0308 12.4439 83.3732 9.14666 83.3732C3.03952 83.3732 0 80.3295 0 74.2703V44.4112C0 38.122 3.15438 34.994 9.4912 34.994H35.7853V10.3584H11.7549V24.3143H0.916189V10.5041C0.916189 4.18678 4.0425 1 10.3206 1H37.217C43.4671 1 46.6215 4.18678 46.6215 10.5041V82.8595H46.624Z" fill="white"/>
<path d="M119.106 1.17888H93.8401V83.4678H119.106V1.17888Z" fill="black" stroke="white" stroke-miterlimit="10"/>
</svg>
