<svg width="314" height="96" viewBox="0 0 314 96" fill="none" xmlns="http://www.w3.org/2000/svg">
<path d="M307.369 53.3175C311.16 51.21 313.087 47.8387 313.087 43.2675C313.087 39.2362 311.764 36.045 309.176 33.6375C306.529 31.23 302.737 30.0262 297.862 30.0262H270.169V30.24C272.078 30.9525 273.821 32.0062 275.389 33.3975C278.58 36.225 280.204 40.02 280.204 44.7712C280.204 49.2862 278.096 53.7375 273.885 58.0725C273.341 58.7362 272.441 59.5762 271.238 60.66L270.514 61.3837L270.169 61.6987V63.6H279.904V76.9725H297.862C302.737 76.9725 306.529 75.8287 309.176 73.3612C311.764 70.9537 313.087 67.7625 313.087 63.7312C313.087 59.1562 311.16 55.485 307.369 53.3175ZM299.966 64.815C299.302 65.4787 298.402 65.7787 297.139 65.7787H286.545V58.1362H296.475C299.423 58.1362 300.93 59.46 300.93 61.9875C300.93 63.1875 300.63 64.0912 299.966 64.815ZM296.475 48.8662H286.545V41.2237H297.139C298.402 41.2237 299.306 41.5237 299.966 42.1875C300.63 42.9112 300.93 43.8712 300.93 45.015C300.93 47.5425 299.426 48.8662 296.475 48.8662Z" fill="#1F4C73"/>
<path d="M262.717 64.995L266.344 61.6987L266.689 61.3837L267.412 60.66C268.616 59.5762 269.52 58.7325 270.06 58.0725C274.271 53.7375 276.379 49.2862 276.379 44.7713C276.379 40.0163 274.755 36.225 271.564 33.3975C269.996 32.0063 268.252 30.9563 266.344 30.24C264.367 29.5013 262.215 29.1225 259.89 29.1225C257.782 29.1225 255.799 29.4825 253.811 30.1463C251.824 30.87 249.96 31.89 248.272 33.2138C248.096 33.3525 247.927 33.4988 247.759 33.6488C246.319 34.9238 245.156 36.5775 244.241 38.5688C243.217 40.7963 242.677 43.3238 242.677 46.0913V47.145H250.845H254.415V46.0913C254.415 44.4075 254.895 43.08 255.919 42.18C256.882 41.2763 258.146 40.7963 259.71 40.7963C261.094 40.7963 262.237 41.1563 263.021 41.88C263.805 42.6038 264.225 43.5637 264.225 44.7675C264.225 45.9112 263.865 46.995 263.081 48.0188C262.297 49.0425 260.854 50.5463 258.686 52.5337L250.95 59.6812L242.074 67.8825V76.38V76.9725H266.344H276.079V64.995H266.344H262.717V64.995Z" fill="#1F4C73"/>
<path d="M243.128 53.2837C245.633 51.8925 247.32 50.88 248.19 48.4125H240.023V46.095C240.023 43.3275 240.563 40.8 241.586 38.5725C242.501 36.5775 243.664 34.9275 245.104 33.6487C245.104 33.645 245.104 33.645 245.104 33.6412C242.434 31.1212 238.568 29.8612 233.565 29.8612H210.083V77.07H233.565C235.733 77.07 237.683 76.845 239.419 76.38V67.8825L248.295 59.6812C247.462 56.9737 245.734 54.7762 243.128 53.2837ZM235.68 64.845C235.013 65.5125 234.105 65.8125 232.834 65.8125H222.18V58.125H232.166C235.133 58.125 236.644 59.4562 236.644 61.9987C236.651 63.21 236.348 64.1175 235.68 64.845ZM232.17 48.8062H222.184V41.1187H232.837C234.109 41.1187 235.016 41.4225 235.684 42.0862C236.351 42.8137 236.651 43.7812 236.651 44.9325C236.651 47.475 235.136 48.8062 232.17 48.8062Z" fill="#1F4C73"/>
<path d="M192.743 15.9988V89.7425H197.168V15.9988H192.743Z" fill="#1F4C73"/>
<path d="M192.742 89.745V15.9975H197.171" fill="#1F4C73"/>
<path fill-rule="evenodd" clip-rule="evenodd" d="M173.411 71.0288V54.12H158.801V71.3325L173.411 71.0288ZM179.76 76.9913H173.31V75.6637C170.722 76.0162 168.12 76.3688 165.536 76.6875C162.33 77.0888 159.742 77.2913 157.811 77.2913C154.234 77.2913 152.456 75.51 152.456 71.97V54.5062C152.456 50.8275 154.305 48.9975 158.014 48.9975H173.411V34.59H159.341V42.75H152.992V34.6762C152.992 30.9825 154.822 29.1187 158.501 29.1187H174.251C177.911 29.1187 179.76 30.9825 179.76 34.6762V76.9913Z" fill="#231F20"/>
<path d="M141.592 -3.8147e-06H135.142V76.9913H141.592V-3.8147e-06Z" fill="#231F20"/>
<path fill-rule="evenodd" clip-rule="evenodd" d="M117.713 65.7225V34.9762L103.305 35.3625V71.2312H112.358C115.931 71.2312 117.713 69.4012 117.713 65.7225ZM124.26 66.7125C124.26 69.6525 123.285 72.1012 121.354 74.0662C119.423 76.0125 116.989 76.9875 114.083 76.9875H103.301V95.1412H96.7538V29.115H103.301V30.4575C105.889 30.12 108.491 29.7862 111.075 29.4675C114.349 29.0475 116.936 28.83 118.8 28.83C122.445 28.83 124.256 30.6112 124.256 34.185V66.7125H124.26Z" fill="#231F20"/>
<path fill-rule="evenodd" clip-rule="evenodd" d="M86.145 76.9913H79.5975V34.9762L65.325 35.3625V76.9913H58.845V34.9762L44.5725 35.3625V76.9913H38.025V29.115H44.5725V30.4575C47.1262 30.12 49.695 29.7675 52.245 29.415C55.3687 29.0287 57.9375 28.8263 59.97 28.8263C61.9687 28.8263 63.4462 29.43 64.4025 30.6412C67.155 30.2887 69.8925 29.9025 72.615 29.5162C76.1925 29.0475 78.8962 28.8263 80.7262 28.8263C84.3375 28.8263 86.1487 30.6075 86.1487 34.1812V76.9913H86.145Z" fill="#231F20"/>
<path fill-rule="evenodd" clip-rule="evenodd" d="M20.9587 71.0288V54.12H6.3487V71.3325L20.9587 71.0288ZM27.3037 76.9913H20.8537V75.6637C18.2662 76.0162 15.6637 76.3688 13.08 76.6875C9.8737 77.0888 7.28619 77.2913 5.35494 77.2913C1.77744 77.2913 -4.57764e-05 75.51 -4.57764e-05 71.97V54.5062C-4.57764e-05 50.8275 1.84871 48.9975 5.55746 48.9975H20.9549V34.59H6.88495V42.75H0.536201V34.6762C0.536201 30.9825 2.3662 29.1187 6.04495 29.1187H21.7949C25.4549 29.1187 27.3037 30.9825 27.3037 34.6762V76.9913V76.9913Z" fill="#231F20"/>
</svg>
