<svg width="152" height="82" viewBox="0 0 152 82" fill="none" xmlns="http://www.w3.org/2000/svg">
<g clip-path="url(#clip0)">
<path d="M61.5074 -0.272095L61.5074 82.0193H86.7321V-0.272095H61.5074Z" fill="#1F4C73"/>
<path d="M61.5065 -0.272339H86.7313V82.0217" fill="#1F4C73"/>
<path d="M126.093 -0.273224V82.1102H152.025V-0.273224H126.093Z" fill="#FF5206"/>
<path d="M126.092 82.1116V-0.271835H152.026" fill="#FF5206"/>
<path fill-rule="evenodd" clip-rule="evenodd" d="M35.9244 71.3062V42.3927H10.9777V71.825L35.9244 71.3062ZM46.7631 81.5003H35.7508V79.231C31.3357 79.8341 26.89 80.4372 22.4749 80.9816C16.9981 81.6716 12.583 82.014 9.28571 82.014C3.17858 82.014 0.139038 78.9703 0.139038 72.9111V43.0546C0.139038 36.7653 3.29342 33.6373 9.63024 33.6373H35.9244V9.00178H11.8939V22.9577H1.05524V9.14745C1.05524 2.83012 4.18154 -0.356659 10.4597 -0.356659H37.3561C43.6061 -0.356659 46.7605 2.83012 46.7605 9.14745V81.5003H46.7631Z" fill="black"/>
<path d="M119.245 -0.177765H93.9792V82.1111H119.245V-0.177765Z" fill="black"/>
</g>
<defs>
<clipPath id="clip0">
<rect width="152" height="82" fill="white"/>
</clipPath>
</defs>
</svg>
