<svg width="188" height="74" viewBox="0 0 188 74" fill="none" xmlns="http://www.w3.org/2000/svg">
<path d="M40.2874 0L40.2874 73.7438H44.7123L44.7123 0H40.2874Z" fill="black"/>
<path d="M58.4505 54.4464V20.4864C58.4505 18.6151 59.2755 16.9989 60.9218 15.6864C62.6205 14.3739 64.6268 13.7139 66.993 13.7139C69.3593 13.7139 71.3655 14.3701 73.0117 15.6864C74.7105 16.9989 75.5317 18.6189 75.5317 20.4864V33.4239H69.1005V19.8789C69.1005 19.4251 68.8942 19.0201 68.4817 18.7164C68.0692 18.3639 67.5555 18.2102 66.9893 18.2102C66.3705 18.2102 65.9092 18.3601 65.4968 18.7164C65.0843 19.0201 64.878 19.4251 64.878 19.8789V55.0539C64.878 55.5077 65.0843 55.9126 65.4968 56.2164C65.9092 56.5201 66.3705 56.7226 66.9893 56.7226C67.5555 56.7226 68.0692 56.5201 68.4817 56.2164C68.8942 55.9126 69.1005 55.5077 69.1005 55.0539V41.5089H75.5317V54.4464C75.5317 56.3176 74.7067 57.9339 73.0117 59.2464C71.3655 60.5589 69.3593 61.2189 66.993 61.2189C64.6268 61.2189 62.6205 60.5626 60.9218 59.2464C59.2718 57.9339 58.4505 56.3139 58.4505 54.4464Z" fill="black"/>
<path d="M92.9205 59.2464C91.2743 60.5589 89.268 61.2189 86.9018 61.2189C84.5355 61.2189 82.5292 60.5626 80.8305 59.2464C79.1842 57.9339 78.3592 56.3139 78.3592 54.4464V20.4864C78.3592 18.6151 79.1842 16.9989 80.8305 15.6864C82.5292 14.3739 84.5355 13.7139 86.9018 13.7139C89.268 13.7139 91.2743 14.3701 92.9205 15.6864C94.6193 16.9989 95.4405 18.6189 95.4405 20.4864V54.4464C95.4443 56.3139 94.6193 57.9339 92.9205 59.2464ZM89.013 19.8789C89.013 19.4251 88.8067 19.0201 88.3942 18.7164C87.9817 18.3639 87.468 18.2102 86.9018 18.2102C86.3355 18.2102 85.8217 18.3601 85.4092 18.7164C84.9967 19.0201 84.7905 19.4251 84.7905 19.8789V55.0539C84.7905 55.5077 84.9967 55.9126 85.4092 56.2164C85.8217 56.5201 86.3355 56.7226 86.9018 56.7226C87.468 56.7226 87.9817 56.5201 88.3942 56.2164C88.8067 55.9126 89.013 55.5077 89.013 55.0539V19.8789Z" fill="black"/>
<path d="M115.199 60.5101H108.869L104.703 40.2451V60.5101H98.373V14.3177H104.703L108.869 34.3314V14.3177H115.199V60.5101Z" fill="black"/>
<path d="M118.904 54.4464V20.4864C118.904 18.6151 119.729 16.9989 121.376 15.6864C123.074 14.3739 125.081 13.7139 127.447 13.7139C129.813 13.7139 131.819 14.3701 133.466 15.6864C135.164 16.9989 135.986 18.6189 135.986 20.4864V33.4239H129.554V19.8789C129.554 19.4251 129.348 19.0201 128.936 18.7164C128.523 18.3639 128.009 18.2102 127.443 18.2102C126.824 18.2102 126.363 18.3601 125.951 18.7164C125.538 19.0201 125.332 19.4251 125.332 19.8789V55.0539C125.332 55.5077 125.538 55.9126 125.951 56.2164C126.363 56.5201 126.824 56.7226 127.443 56.7226C128.009 56.7226 128.523 56.5201 128.936 56.2164C129.348 55.9126 129.554 55.5077 129.554 55.0539V41.5089H135.986V54.4464C135.986 56.3176 135.161 57.9339 133.466 59.2464C131.819 60.5589 129.813 61.2189 127.447 61.2189C125.081 61.2189 123.074 60.5626 121.376 59.2464C119.729 57.9339 118.904 56.3139 118.904 54.4464Z" fill="black"/>
<path d="M151.166 60.5101H138.558V14.3177H151.166V19.3726H144.888V34.9389H149.054V39.9939H144.888V55.5076H151.166V60.5101Z" fill="black"/>
<path d="M171.131 20.8876V35.2389C171.131 40.4439 164.647 40.7964 160.428 40.7964V60.4539C156.569 60.4539 154.049 60.4539 154.049 60.4539V14.3177C154.049 14.3177 157.856 14.3177 162.539 14.3177C165.318 14.3177 167.066 14.7714 168.712 16.0351C170.411 17.3514 171.131 19.0689 171.131 20.8876ZM164.699 20.4339C164.699 19.9802 164.493 19.4739 164.081 19.1702C163.619 18.8664 163.154 18.7164 162.536 18.7164H160.424V36.5551C163.304 36.5551 164.643 36.4539 164.643 34.3839C164.647 29.2764 164.699 26.5464 164.699 20.4339Z" fill="black"/>
<path d="M177.149 60.5101V19.3201H172.93V14.3177H187.698V19.3201H183.479V60.5101H177.149Z" fill="black"/>
<path d="M40.2855 73.7439V0.000148773H44.7143" fill="black"/>
<path fill-rule="evenodd" clip-rule="evenodd" d="M20.9588 55.0276V38.1189H6.34875V55.3314L20.9588 55.0276ZM27.3038 60.9901H20.8538V59.6626C18.2663 60.0151 15.6638 60.3676 13.08 60.6864C9.87375 61.0876 7.28625 61.2901 5.355 61.2901C1.7775 61.2901 0 59.5089 0 55.9689V38.5051C0 34.8264 1.84875 32.9964 5.5575 32.9964H20.955V18.5889H6.885V26.7489H0.53625V18.6714C0.53625 14.9776 2.36625 13.1139 6.045 13.1139H21.795C25.455 13.1139 27.3038 14.9776 27.3038 18.6714V60.9901Z" fill="#231F20"/>
</svg>
