<svg width="340" height="96" viewBox="0 0 340 96" fill="none" xmlns="http://www.w3.org/2000/svg">
<path d="M209.981 70.4475V36.4875C209.981 34.6162 210.806 33 212.452 31.6875C214.151 30.375 216.158 29.715 218.524 29.715C220.89 29.715 222.896 30.3713 224.542 31.6875C226.241 33 227.062 34.62 227.062 36.4875V49.425H220.631V35.88C220.631 35.4262 220.425 35.0213 220.012 34.7175C219.6 34.365 219.086 34.2113 218.52 34.2113C217.901 34.2113 217.44 34.3613 217.027 34.7175C216.615 35.0213 216.409 35.4262 216.409 35.88V71.055C216.409 71.5088 216.615 71.9138 217.027 72.2175C217.44 72.5213 217.901 72.7237 218.52 72.7237C219.086 72.7237 219.6 72.5213 220.012 72.2175C220.425 71.9138 220.631 71.5088 220.631 71.055V57.51H227.062V70.4475C227.062 72.3187 226.237 73.935 224.542 75.2475C222.896 76.56 220.89 77.22 218.524 77.22C216.158 77.22 214.151 76.5638 212.452 75.2475C210.806 73.935 209.981 72.315 209.981 70.4475Z" fill="black"/>
<path d="M244.455 75.2475C242.809 76.56 240.802 77.22 238.436 77.22C236.07 77.22 234.064 76.5638 232.365 75.2475C230.719 73.935 229.894 72.315 229.894 70.4475V36.4875C229.894 34.6162 230.719 33 232.365 31.6875C234.064 30.375 236.07 29.715 238.436 29.715C240.802 29.715 242.809 30.3713 244.455 31.6875C246.154 33 246.975 34.62 246.975 36.4875V70.4475C246.979 72.315 246.154 73.935 244.455 75.2475ZM240.544 35.88C240.544 35.4262 240.337 35.0213 239.925 34.7175C239.512 34.365 238.999 34.2113 238.432 34.2113C237.866 34.2113 237.352 34.3613 236.94 34.7175C236.527 35.0213 236.321 35.4262 236.321 35.88V71.055C236.321 71.5088 236.527 71.9138 236.94 72.2175C237.352 72.5213 237.866 72.7237 238.432 72.7237C238.999 72.7237 239.512 72.5213 239.925 72.2175C240.337 71.9138 240.544 71.5088 240.544 71.055V35.88Z" fill="black"/>
<path d="M266.734 76.5113H260.404L256.237 56.2462V76.5113H249.907V30.3188H256.237L260.404 50.3325V30.3188H266.734V76.5113Z" fill="black"/>
<path d="M270.439 70.4475V36.4875C270.439 34.6162 271.264 33 272.91 31.6875C274.609 30.375 276.615 29.715 278.981 29.715C281.348 29.715 283.354 30.3713 285 31.6875C286.699 33 287.52 34.62 287.52 36.4875V49.425H281.089V35.88C281.089 35.4262 280.882 35.0213 280.47 34.7175C280.057 34.365 279.544 34.2113 278.977 34.2113C278.359 34.2113 277.897 34.3613 277.485 34.7175C277.072 35.0213 276.866 35.4262 276.866 35.88V71.055C276.866 71.5088 277.072 71.9138 277.485 72.2175C277.897 72.5213 278.359 72.7237 278.977 72.7237C279.544 72.7237 280.057 72.5213 280.47 72.2175C280.882 71.9138 281.089 71.5088 281.089 71.055V57.51H287.52V70.4475C287.52 72.3187 286.695 73.935 285 75.2475C283.354 76.56 281.348 77.22 278.981 77.22C276.615 77.22 274.609 76.5638 272.91 75.2475C271.26 73.935 270.439 72.315 270.439 70.4475Z" fill="black"/>
<path d="M302.7 76.5113H290.093V30.3188H302.7V35.3738H296.423V50.94H300.589V55.995H296.423V71.5088H302.7V76.5113Z" fill="black"/>
<path d="M322.661 36.8888V51.24C322.661 56.445 316.177 56.7975 311.959 56.7975V76.455C308.1 76.455 305.58 76.455 305.58 76.455V30.3188C305.58 30.3188 309.386 30.3188 314.07 30.3188C316.849 30.3188 318.596 30.7725 320.243 32.0363C321.941 33.3525 322.661 35.07 322.661 36.8888ZM316.23 36.435C316.23 35.9813 316.024 35.475 315.611 35.1713C315.15 34.8675 314.685 34.7175 314.066 34.7175H311.955V52.5563C314.835 52.5563 316.174 52.455 316.174 50.385C316.181 45.2775 316.23 42.5475 316.23 36.435Z" fill="black"/>
<path d="M328.684 76.5113V35.3213H324.465V30.3188H339.232V35.3213H335.014V76.5113H328.684Z" fill="black"/>
<path d="M192.743 15.9995V89.7433H197.168V15.9995H192.743Z" fill="black"/>
<path d="M192.742 89.7458V16.0021H197.171" fill="black"/>
<path fill-rule="evenodd" clip-rule="evenodd" d="M173.411 71.0288V54.12H158.801V71.3325L173.411 71.0288ZM179.76 76.9912H173.31V75.6638C170.722 76.0163 168.12 76.3687 165.536 76.6875C162.33 77.0888 159.742 77.2912 157.811 77.2912C154.234 77.2912 152.456 75.51 152.456 71.97V54.5063C152.456 50.8275 154.305 48.9975 158.014 48.9975H173.411V34.59H159.341V42.75H152.992V34.6725C152.992 30.9788 154.822 29.115 158.501 29.115H174.251C177.911 29.115 179.76 30.9788 179.76 34.6725V76.9912Z" fill="#231F20"/>
<path d="M141.592 0H135.142V76.9912H141.592V0Z" fill="#231F20"/>
<path fill-rule="evenodd" clip-rule="evenodd" d="M117.713 65.7225V34.9763L103.305 35.3625V71.2313H112.358C115.931 71.2313 117.713 69.4013 117.713 65.7225ZM124.26 66.7163C124.26 69.6563 123.285 72.105 121.354 74.07C119.423 76.0163 116.989 76.9912 114.083 76.9912H103.301V95.145H96.7538V29.1188H103.301V30.4613C105.889 30.1238 108.491 29.79 111.075 29.4713C114.349 29.0513 116.936 28.8338 118.8 28.8338C122.445 28.8338 124.256 30.615 124.256 34.1888V66.7163H124.26Z" fill="#231F20"/>
<path fill-rule="evenodd" clip-rule="evenodd" d="M86.145 76.9912H79.5975V34.9763L65.325 35.3625V76.9912H58.845V34.9763L44.5725 35.3625V76.9912H38.025V29.1188H44.5725V30.4613C47.1262 30.1238 49.695 29.7713 52.245 29.4188C55.3687 29.0325 57.9375 28.83 59.97 28.83C61.9687 28.83 63.4462 29.4338 64.4025 30.645C67.155 30.2925 69.8925 29.9063 72.615 29.52C76.1925 29.0513 78.8962 28.83 80.7262 28.83C84.3375 28.83 86.1487 30.6113 86.1487 34.185V76.9912H86.145Z" fill="#231F20"/>
<path fill-rule="evenodd" clip-rule="evenodd" d="M20.9587 71.0288V54.12H6.3487V71.3325L20.9587 71.0288ZM27.3037 76.9912H20.8537V75.6638C18.2662 76.0163 15.6637 76.3687 13.08 76.6875C9.8737 77.0888 7.28619 77.2912 5.35494 77.2912C1.77744 77.2912 -4.57764e-05 75.51 -4.57764e-05 71.97V54.5063C-4.57764e-05 50.8275 1.84871 48.9975 5.55746 48.9975H20.9549V34.59H6.88495V42.75H0.536201V34.6725C0.536201 30.9788 2.3662 29.115 6.04495 29.115H21.7949C25.4549 29.115 27.3037 30.9788 27.3037 34.6725V76.9912V76.9912Z" fill="#231F20"/>
</svg>
