<svg width="213" height="74" viewBox="0 0 213 74" fill="none" xmlns="http://www.w3.org/2000/svg">
<path d="M40.286 0L40.286 73.7438H44.711L44.711 0H40.286Z" fill="#F23207"/>
<path d="M40.2863 73.7445V0.000793457H44.715" fill="#F23207"/>
<path d="M40.286 0L40.286 73.7438H44.711L44.711 0H40.286Z" fill="#FF5206"/>
<path fill-rule="evenodd" clip-rule="evenodd" d="M77.4037 26.0558C77.0475 26.4233 76.6313 28.2045 76.4963 30.0195C76.0425 34.4745 74.1375 38.7983 70.4062 43.7445C66.6263 48.7058 65.2613 49.4295 63.36 47.427C62.3175 46.3358 62.3175 46.1145 62.5875 40.0245C62.7225 36.5633 62.9925 32.697 63.225 31.467C63.6788 28.692 63.1275 27.147 61.7288 27.147C60.1838 27.147 59.6288 28.2045 59.175 31.5683C58.8188 34.3433 58.2788 40.3958 57.6263 42.567C57.3188 43.6095 58.5825 48.3871 59.7263 50.1533C60.99 52.2533 63.2625 53.247 65.5463 52.6095C67.9538 51.9833 69.3637 50.757 71.5875 47.4795C75.675 41.3408 76.4963 41.1083 76.4963 46.302C76.4963 51.8895 78.585 59.3896 80.3625 60.0758C82.77 60.9833 83.91 59.7571 82.5 57.7545C81.9975 57.0683 81.5063 55.5683 81.3225 54.4395C79.9125 43.527 79.5412 34.197 80.4525 29.4683C80.8687 27.3308 80.8688 26.3745 80.55 25.9208C79.8563 25.1108 78.09 25.197 77.4037 26.0558ZM85.6875 17.757C84.7312 19.0208 84.645 20.5695 84.5962 34.257C84.5962 48.5333 84.8287 50.5846 86.28 51.1733C87.555 51.6758 88.38 50.217 88.65 46.7183C89.0175 42.8033 88.9312 42.8033 94.6537 44.4833C101.392 46.4483 102.892 46.8045 106.17 47.3933C109.89 48.0308 112.849 47.847 112.849 46.9883C112.849 46.032 111.892 45.5408 108.761 44.7646C104.88 43.7933 103.665 43.032 99.9337 41.9895C98.4375 41.5733 96.165 40.797 94.8037 40.3433C92.0287 39.3008 91.5262 38.1195 93.8962 38.1195C95.85 38.1195 99.9375 36.8933 101.801 35.7495C106.256 33.072 107.119 27.2033 103.534 24.0608C100.035 21.0158 96.0337 19.9733 91.44 20.9783C89.8425 21.2858 89.745 21.2483 89.475 19.887C89.34 19.0658 88.9725 18.1545 88.7025 17.787C88.0575 17.0708 86.28 17.022 85.6875 17.757ZM100.249 26.757C102.116 28.9433 102.202 29.8508 100.702 31.3958C100.027 32.1195 98.8875 33.027 98.1975 33.3983C96.7012 34.1708 90.9675 34.257 90.2062 33.4845C89.8875 33.1658 89.655 31.7183 89.655 30.072C89.655 27.297 89.7037 27.162 91.1512 26.3033C92.2425 25.617 93.4237 25.3958 95.8762 25.3958C98.9362 25.3958 99.2062 25.482 100.249 26.757Z" fill="#FF5206"/>
<path fill-rule="evenodd" clip-rule="evenodd" d="M175.271 27.1695C174.364 27.9908 172.545 30.0795 171.184 31.8608C169.871 33.5933 168.457 35.0895 168.041 35.1758C167.587 35.2733 167.096 34.6358 166.545 33.357C165.551 30.7658 164.089 29.2208 163.316 29.8583C162.862 30.2145 162.776 31.7595 162.997 36.4508C163.192 41.4458 163.095 43.227 162.42 46.137C161.55 49.857 161.685 50.997 162.874 51.4545C164.1 51.957 165.649 49.9583 167.182 46.0395C169.05 41.2658 170.509 38.4533 172.781 35.0408C175.47 30.9908 176.231 30.267 177.877 30.267C179.152 30.267 179.374 30.4508 179.831 32.0483C180.517 34.2195 180.555 44.9145 179.917 47.187C179.059 50.3295 180.787 53.6933 182.422 52.047C183.465 51.0533 184.29 44.547 184.29 37.5495C184.29 32.0483 184.155 31.1783 183.232 29.4608C181.699 26.5395 180.69 25.7295 178.691 25.7295C177.371 25.7183 176.55 26.0745 175.271 27.1695ZM196.819 17.2245C195.236 19.1408 189.821 38.0595 189.319 43.422C189.184 45.0533 188.779 47.6933 188.411 49.3283C185.685 61.5195 185.415 63.237 186.041 65.1045C186.274 65.7908 186.727 66.162 187.402 66.162C188.542 66.162 189.184 64.617 190.496 58.4295C191.047 55.7408 191.269 55.422 192.915 54.477C195.188 53.202 196.77 52.6958 202.234 51.7883L206.505 51.0645L207.326 52.107C209.329 54.747 209.966 55.2495 211.046 55.2495C212.558 55.2495 212.644 53.922 211.328 52.0583C209.681 49.737 205.999 42.4208 204.281 37.9658C203.359 35.6445 201.998 32.4645 201.225 31.017C199.913 28.3283 199.913 28.242 200.415 25.3695C201.004 22.2383 200.771 18.2858 199.913 17.232C199.223 16.4145 197.505 16.4145 196.819 17.2245ZM199.222 35.5545C200.179 37.5083 201.225 40.0583 201.544 41.2395C201.862 42.417 202.549 43.9658 203.092 44.7383C204.589 46.827 204.368 47.7833 202.136 48.372C199.912 48.972 193.826 48.8258 193.136 48.1508C192.731 47.7458 193.185 44.3708 194.734 36.8333C195.956 30.8633 196.77 30.642 199.222 35.5545Z" fill="#FF5206"/>
<path fill-rule="evenodd" clip-rule="evenodd" d="M117.206 14.8583C116.715 15.5333 116.261 16.3058 116.261 16.5908C116.261 16.8608 115.856 17.8545 115.354 18.8145C114.263 20.817 114.225 21.822 115.133 23.0483C115.673 23.772 115.77 26.3145 115.808 38.0858C115.808 45.9533 115.991 52.782 116.261 53.4195C116.482 54.0458 117.206 54.9158 117.881 55.3208C118.913 56.0445 119.404 56.0445 122.486 55.5533C125.58 55.0508 126.487 54.6458 130.406 52.092C133.77 49.8683 135.082 48.6795 136.042 47.097C138.412 43.047 138.364 38.367 135.994 36.5033C135.405 36.0495 133.365 35.0408 131.501 34.317C129.585 33.5933 128.04 32.772 128.04 32.4495C128.04 31.9095 130.361 30.177 133.995 28.092C137.959 25.857 139.594 22.5795 137.91 20.307C137.051 19.1783 132.727 18.2183 126.727 17.8508L121.496 17.532L120.589 15.7133C119.404 13.497 118.459 13.2645 117.206 14.8583ZM133.496 22.542C134.355 23.5845 133.718 24.4433 130.905 25.9545C129.443 26.6783 126.941 28.0433 125.306 28.902C121.035 31.272 120.814 31.1745 120.814 27.1358C120.814 24.9008 120.986 23.5883 121.403 23.3558C123.491 21.9945 132.585 21.402 133.545 22.5458H133.496V22.542ZM123.994 36.132C129.36 37.2233 132.082 38.3183 133.631 39.912C134.992 41.3108 135.041 41.4608 134.404 42.6383C132.772 45.8183 124.582 52.3245 122.212 52.3245C121.942 52.3245 121.305 51.6383 120.814 50.8133C119.993 49.5495 119.857 48.5408 119.857 42.957C119.857 38.637 120.03 36.402 120.397 36.0458C120.716 35.727 120.949 35.4945 120.986 35.4945C120.986 35.4945 122.314 35.7758 123.945 36.132H123.994V36.132ZM146.595 23.697C150.056 20.5058 152.636 21.2408 154.98 25.9695L156.292 28.647L156.022 35.607C155.79 41.6595 155.887 43.107 156.795 47.2958C157.924 52.7483 158.479 53.9745 160.429 55.6208C162.195 57.117 162.161 57.7583 160.196 57.7583C159.019 57.7583 158.194 57.342 156.832 56.0745C155.385 54.6645 154.845 53.6183 153.847 50.2545C151.687 42.8895 151.234 42.3345 149.917 45.1095C149.501 45.9308 148.32 47.7008 147.278 49.0245C145.511 51.1958 145.189 51.432 143.73 51.297C139.864 50.9783 139.005 45.6983 141.274 36.3795C143.28 28.1558 144.24 25.872 146.595 23.697ZM151.826 29.4195C151.826 26.5583 151.789 26.3745 150.784 26.3745C148.106 26.3745 144.964 32.3783 143.602 40.1108C143.149 42.5183 143.149 43.4258 143.651 44.517C144.375 46.3845 145.012 46.2833 146.966 44.1495C149.197 41.6933 151.826 33.6908 151.826 29.4195Z" fill="#FF5206"/>
<path fill-rule="evenodd" clip-rule="evenodd" d="M20.955 55.032V38.1233H6.345V55.3358L20.955 55.032ZM27.3038 60.9908H20.8537V59.6633C18.2662 60.0158 15.6637 60.3683 13.08 60.687C9.87375 61.0883 7.28625 61.2908 5.355 61.2908C1.7775 61.2908 0 59.5095 0 55.9695V38.5058C0 34.827 1.84875 32.997 5.5575 32.997H20.955V18.5895H6.885V26.7495H0.53625V18.672C0.53625 14.9783 2.36625 13.1145 6.045 13.1145H21.795C25.455 13.1145 27.3038 14.9783 27.3038 18.672V60.9908V60.9908Z" fill="#231F20"/>
</svg>
