<svg width="334" height="134" viewBox="0 0 334 134" fill="none" xmlns="http://www.w3.org/2000/svg">
<path d="M288.615 87.4208H271.154V40.0468H288.615V87.4208Z" fill="#1F4C73"/>
<path d="M271.154 40.0466H288.615V87.4206" fill="#1F4C73"/>
<path d="M333.568 87.4208H316.108V40.0468H333.568V87.4208Z" fill="#FF5206"/>
<path d="M316.108 87.4207V40.0467H333.568" fill="#FF5206"/>
<path fill-rule="evenodd" clip-rule="evenodd" d="M253.21 108.405H244.127V106.537C240.484 107.034 236.818 107.53 233.175 107.98C228.657 108.547 225.015 108.831 222.295 108.831C217.256 108.831 214.749 106.325 214.749 101.336V76.7467C214.749 71.5687 217.351 68.9916 222.578 68.9916H244.269V48.7055H224.447V60.1961H215.506V48.8236C215.506 43.6224 218.084 40.9978 223.265 40.9978H245.451C250.608 40.9978 253.21 43.6224 253.21 48.8236V108.405ZM244.269 100.012V76.2029H223.69V100.437L244.269 100.012Z" fill="white"/>
<path fill-rule="evenodd" clip-rule="evenodd" d="M199.446 108.405H190.363V1.37519e-06H199.446V108.405Z" fill="white"/>
<path fill-rule="evenodd" clip-rule="evenodd" d="M175.035 93.9355C175.035 98.073 173.663 101.525 170.943 104.291C168.223 107.034 164.793 108.405 160.701 108.405H145.516V133.964H136.291V40.998H145.516V42.8892C149.158 42.4162 152.824 41.9436 156.467 41.4941C161.079 40.9033 164.722 40.5957 167.348 40.5957C172.481 40.5957 175.035 43.1019 175.035 48.1378V93.9355ZM165.81 92.5404V49.2495L145.516 49.7931V100.296H158.265C163.303 100.296 165.81 97.7184 165.81 92.5404" fill="white"/>
<path fill-rule="evenodd" clip-rule="evenodd" d="M121.342 108.405H112.117V49.2493L92.0117 49.7932V108.405H82.8816V49.2493L62.7761 49.7932V108.405H53.5514V40.9978H62.7761V42.8892C66.3716 42.4163 69.9905 41.9199 73.5859 41.4232C77.9852 40.8794 81.6044 40.5957 84.4664 40.5957C87.2812 40.5957 89.3625 41.447 90.7107 43.1492C94.5897 42.6528 98.4454 42.1089 102.277 41.5654C107.315 40.9031 111.123 40.5957 113.702 40.5957C118.787 40.5957 121.342 43.102 121.342 48.1379V108.405Z" fill="white"/>
<path fill-rule="evenodd" clip-rule="evenodd" d="M38.4606 108.405H29.3775V106.537C25.7348 107.034 22.0687 107.53 18.4261 107.98C13.9084 108.547 10.2657 108.831 7.5456 108.831C2.50728 108.831 0 106.325 0 101.336V76.7467C0 71.5687 2.60197 68.9916 7.82937 68.9916H29.5196V48.7055H9.6979V60.1961H0.756904V48.8236C0.756904 43.6224 3.33513 40.9978 8.51533 40.9978H30.7022C35.8587 40.9978 38.4606 43.6224 38.4606 48.8236V108.405ZM29.5196 100.012V76.2029H8.94099V100.437L29.5196 100.012Z" fill="white"/>
<path d="M311.182 87.4876H293.515V40.0283H311.182V87.4876Z" fill="black" stroke="white" stroke-miterlimit="10"/>
<path d="M285.404 108.372H283.49V95.8584L279.317 95.9757V108.372H277.417V95.8584L273.244 95.9757V108.372H271.33V94.1149H273.244V94.5108C273.992 94.4131 274.74 94.3105 275.489 94.2029C276.4 94.0859 277.153 94.0271 277.748 94.0271C278.333 94.0271 278.765 94.2079 279.043 94.5693C279.849 94.462 280.65 94.3494 281.447 94.2321C282.492 94.0956 283.284 94.0271 283.822 94.0271C284.877 94.0271 285.404 94.5594 285.404 95.6242V108.372Z" fill="white"/>
<path d="M295.666 89.4699L292.14 92.855H290.802V92.767L292.96 89.4115H295.666V89.4699ZM294.644 95.8295H290.428V106.658H294.644V95.8295ZM296.558 106.716C296.558 107.82 296.016 108.372 294.932 108.372H290.125C289.05 108.372 288.513 107.82 288.513 106.716V95.7707C288.513 94.667 289.05 94.1149 290.125 94.1149H294.932C296.016 94.1149 296.558 94.667 296.558 95.7707V106.716Z" fill="white"/>
<path d="M307.568 94.1149L304.099 108.401H302.358L298.875 94.1149H300.847L303.236 105.339L305.654 94.1149H307.568Z" fill="white"/>
<path d="M315.886 95.7413H311.77V100.035H315.886V95.7413ZM317.743 106.716C317.743 107.82 317.205 108.372 316.131 108.372H311.525C310.451 108.372 309.913 107.82 309.913 106.716V95.7708C309.913 94.6671 310.451 94.115 311.525 94.115H316.131C317.205 94.115 317.743 94.6671 317.743 95.7708V100.899L317.095 101.588H311.77V106.746H315.886V104.137H317.743V106.716Z" fill="white"/>
<path d="M322.909 108.372H321.024V94.1147H322.909V108.372ZM322.938 90.994H320.995V88.5322H322.938V90.994Z" fill="white"/>
<path d="M333.703 106.716C333.703 107.82 333.161 108.372 332.076 108.372H327.687C326.603 108.372 326.061 107.82 326.061 106.716V103.478H327.946V106.687H331.818V103.844L326.809 99.6684C326.329 99.2777 326.09 98.7697 326.09 98.1445V95.7707C326.09 94.667 326.632 94.1149 327.716 94.1149H332.048C333.132 94.1149 333.674 94.667 333.674 95.7707V98.6133H331.818V95.7999H327.946V98.291L332.998 102.467C333.467 102.848 333.703 103.366 333.703 104.02V106.716Z" fill="white"/>
</svg>
