<svg width="161" height="74" viewBox="0 0 161 74" fill="none" xmlns="http://www.w3.org/2000/svg">
<path d="M40.288 0.00296021L40.288 73.7467H44.713L44.713 0.00296021H40.288Z" fill="#1F4C73"/>
<path d="M154.915 37.32C158.707 35.2125 160.634 31.8412 160.634 27.27C160.634 23.2387 159.31 20.0475 156.723 17.64C154.075 15.2325 150.284 14.0287 145.409 14.0287H117.715V14.2425C119.624 14.955 121.368 16.0088 122.936 17.4C126.127 20.2275 127.75 24.0225 127.75 28.7737C127.75 33.2887 125.643 37.74 121.432 42.075C120.888 42.7388 119.988 43.5787 118.784 44.6625L118.061 45.3862L117.715 45.7013V47.6025H127.45V60.975H145.409C150.284 60.975 154.075 59.8313 156.723 57.3637C159.31 54.9562 160.634 51.765 160.634 47.7338C160.63 43.1588 158.707 39.4875 154.915 37.32ZM147.509 48.8175C146.845 49.4813 145.945 49.7813 144.682 49.7813H134.088V42.1388H144.018C146.965 42.1388 148.473 43.4625 148.473 45.99C148.473 47.19 148.173 48.0938 147.509 48.8175ZM144.022 32.8688H134.092V25.2263H144.685C145.949 25.2263 146.853 25.5263 147.513 26.19C148.177 26.9138 148.477 27.8738 148.477 29.0175C148.473 31.545 146.969 32.8688 144.022 32.8688Z" fill="#1F4C73"/>
<path d="M110.264 48.9975L113.891 45.7013L114.236 45.3863L114.959 44.6625C116.163 43.5788 117.067 42.735 117.607 42.075C121.818 37.74 123.926 33.2888 123.926 28.7738C123.926 24.0188 122.302 20.2276 119.111 17.4001C117.543 16.0088 115.799 14.9588 113.891 14.2425C111.914 13.5038 109.762 13.1251 107.437 13.1251C105.329 13.1251 103.342 13.485 101.358 14.1488C99.3705 14.8725 97.5068 15.8925 95.8193 17.2163C95.643 17.355 95.4743 17.5013 95.3055 17.6513C93.8655 18.9263 92.703 20.5801 91.788 22.5713C90.7643 24.7988 90.2243 27.3263 90.2243 30.0938V31.1475H98.3918H101.962V30.0938C101.962 28.41 102.442 27.0825 103.466 26.1825C104.429 25.2788 105.693 24.7988 107.257 24.7988C108.641 24.7988 109.784 25.1588 110.568 25.8826C111.352 26.6063 111.772 27.5663 111.772 28.77C111.772 29.9138 111.412 30.9975 110.628 32.0213C109.844 33.045 108.401 34.5488 106.233 36.5363L98.4968 43.6838L89.6205 51.885V60.3825V60.975H113.891H123.626V48.9975H113.891H110.264V48.9975Z" fill="#1F4C73"/>
<path d="M90.6705 37.2863C93.1755 35.895 94.863 34.8825 95.733 32.415H87.5655V30.0975C87.5655 27.33 88.1055 24.8025 89.1293 22.575C90.0443 20.58 91.2068 18.93 92.6468 17.6513C92.6468 17.6475 92.6468 17.6475 92.6468 17.6438C89.9768 15.1238 86.1105 13.8638 81.108 13.8638H57.6255V61.0725H81.108C83.2755 61.0725 85.2255 60.8475 86.9618 60.3825V51.885L95.838 43.6838C95.0055 40.9763 93.2768 38.7788 90.6705 37.2863ZM83.2268 48.8475C82.5593 49.515 81.6518 49.815 80.3805 49.815H69.7268V42.1275H79.713C82.6793 42.1275 84.1905 43.4588 84.1905 46.0013C84.1943 47.2125 83.8905 48.12 83.2268 48.8475ZM79.7168 32.8088H69.7305V25.1213H80.3843C81.6555 25.1213 82.563 25.425 83.2305 26.0888C83.898 26.8163 84.198 27.7838 84.198 28.935C84.1943 31.4775 82.683 32.8088 79.7168 32.8088Z" fill="#1F4C73"/>
<path d="M40.2855 73.7475V-3.8147e-06H44.7143" fill="#1F4C73"/>
<path fill-rule="evenodd" clip-rule="evenodd" d="M20.9588 55.0313V38.1225H6.34875V55.335L20.9588 55.0313ZM27.3038 60.9938H20.8538V59.6663C18.2663 60.0188 15.6638 60.3713 13.08 60.69C9.87375 61.0913 7.28625 61.2938 5.355 61.2938C1.7775 61.2938 0 59.5125 0 55.9725V38.5088C0 34.83 1.84875 33 5.5575 33H20.955V18.5925H6.885V26.7525H0.53625V18.6788C0.53625 14.985 2.36625 13.1213 6.045 13.1213H21.795C25.455 13.1213 27.3038 14.985 27.3038 18.6788V60.9938Z" fill="#231F20"/>
</svg>
