<svg width="334" height="134" viewBox="0 0 334 134" fill="none" xmlns="http://www.w3.org/2000/svg">
<path d="M288.615 87.4208H271.154V40.0465H288.615V87.4208Z" fill="#1F4C73"/>
<path d="M271.154 40.0465H288.615V87.4207" fill="#1F4C73"/>
<path d="M293.631 87.4207V40.0464H311.092V87.4207" fill="black"/>
<path d="M333.568 87.4208H316.108V40.0465H333.568V87.4208Z" fill="#FF5206"/>
<path d="M316.108 87.4207V40.0464H333.568" fill="#FF5206"/>
<path fill-rule="evenodd" clip-rule="evenodd" d="M253.21 108.405H244.127V106.537C240.484 107.034 236.818 107.53 233.175 107.98C228.657 108.547 225.015 108.83 222.295 108.83C217.256 108.83 214.749 106.325 214.749 101.336V76.7464C214.749 71.5686 217.351 68.9915 222.578 68.9915H244.269V48.7054H224.447V60.1961H215.506V48.8235C215.506 43.622 218.084 40.9977 223.264 40.9977H245.451C250.607 40.9977 253.21 43.622 253.21 48.8235V108.405ZM244.269 100.012V76.2028H223.69V100.437L244.269 100.012Z" fill="black"/>
<path fill-rule="evenodd" clip-rule="evenodd" d="M199.445 108.405H190.363V-3.96192e-06H199.445V108.405Z" fill="black"/>
<path fill-rule="evenodd" clip-rule="evenodd" d="M175.035 93.9353C175.035 98.0728 173.663 101.525 170.943 104.291C168.223 107.034 164.793 108.405 160.701 108.405H145.516V133.964H136.291V40.9978H145.516V42.889C149.158 42.4161 152.825 41.9434 156.467 41.4942C161.08 40.9029 164.722 40.5956 167.348 40.5956C172.481 40.5956 175.035 43.1018 175.035 48.138V93.9353ZM165.81 92.5405V49.2491L145.516 49.793V100.295H158.265C163.303 100.295 165.81 97.7183 165.81 92.5405Z" fill="black"/>
<path fill-rule="evenodd" clip-rule="evenodd" d="M121.342 108.405H112.117V49.2492L92.0119 49.7931V108.405H82.8816V49.2492L62.7763 49.7931V108.405H53.5516V40.9977H62.7763V42.8892C66.3715 42.4162 69.9907 41.9195 73.5861 41.4232C77.9854 40.8793 81.6043 40.5957 84.4666 40.5957C87.2811 40.5957 89.3628 41.4469 90.7109 43.1491C94.5899 42.6527 98.4456 42.1088 102.278 41.565C107.316 40.903 111.124 40.5957 113.702 40.5957C118.788 40.5957 121.342 43.1019 121.342 48.1381V108.405Z" fill="black"/>
<path fill-rule="evenodd" clip-rule="evenodd" d="M38.4606 108.405H29.3777V106.537C25.7351 107.034 22.0687 107.53 18.4261 107.98C13.9084 108.547 10.2657 108.83 7.5456 108.83C2.50756 108.83 0 106.325 0 101.336V76.7464C0 71.5686 2.60197 68.9915 7.82937 68.9915H29.5196V48.7054H9.6979V60.1961H0.757181V48.8235C0.757181 43.622 3.33541 40.9977 8.51533 40.9977H30.7025C35.8586 40.9977 38.4606 43.622 38.4606 48.8235V108.405ZM29.5196 100.012V76.2028H8.94127V100.437L29.5196 100.012Z" fill="black"/>
<path d="M285.405 108.372H283.491V95.8585L279.317 95.9757V108.372H277.417V95.8585L273.244 95.9757V108.372H271.33V94.1149H273.244V94.5106C273.992 94.4132 274.741 94.3105 275.489 94.2029C276.4 94.0856 277.153 94.0271 277.749 94.0271C278.334 94.0271 278.765 94.2079 279.043 94.5693C279.85 94.4617 280.65 94.3494 281.447 94.2322C282.493 94.0956 283.284 94.0271 283.822 94.0271C284.877 94.0271 285.405 94.5594 285.405 95.6242V108.372Z" fill="black"/>
<path d="M295.666 89.47L292.14 92.8548H290.802V92.767L292.96 89.4115H295.666V89.47ZM294.644 95.8293H290.428V106.658H294.644V95.8293ZM296.558 106.716C296.558 107.82 296.016 108.372 294.932 108.372H290.125C289.051 108.372 288.513 107.82 288.513 106.716V95.7708C288.513 94.6668 289.051 94.1149 290.125 94.1149H294.932C296.016 94.1149 296.558 94.6668 296.558 95.7708V106.716Z" fill="black"/>
<path d="M307.568 94.1149L304.1 108.401H302.358L298.875 94.1149H300.847L303.236 105.339L305.654 94.1149H307.568Z" fill="black"/>
<path d="M315.886 95.7414H311.77V100.035H315.886V95.7414ZM317.743 106.716C317.743 107.82 317.205 108.372 316.131 108.372H311.525C310.451 108.372 309.913 107.82 309.913 106.716V95.7709C309.913 94.6669 310.451 94.115 311.525 94.115H316.131C317.205 94.115 317.743 94.6669 317.743 95.7709V100.899L317.095 101.588H311.77V106.746H315.886V104.137H317.743V106.716Z" fill="black"/>
<path d="M322.91 108.372H321.024V94.1148H322.91V108.372ZM322.938 90.994H320.995V88.5325H322.938V90.994Z" fill="black"/>
<path d="M333.703 106.716C333.703 107.82 333.161 108.372 332.077 108.372H327.687C326.603 108.372 326.061 107.82 326.061 106.716V103.478H327.947V106.687H331.818V103.844L326.81 99.6683C326.329 99.2779 326.09 98.7696 326.09 98.1444V95.7709C326.09 94.6669 326.632 94.115 327.716 94.115H332.048C333.132 94.115 333.674 94.6669 333.674 95.7709V98.6132H331.818V95.7998H327.947V98.2909L332.998 102.467C333.468 102.848 333.703 103.366 333.703 104.02V106.716Z" fill="black"/>
</svg>
